<svg width="17" height="29" viewBox="0 0 17 29" fill="none" xmlns="http://www.w3.org/2000/svg">
<path d="M11.4681 0.138879C11.6203 0.232717 11.7477 0.364089 11.8326 0.529243C11.9211 0.690643 11.9636 0.874564 11.9636 1.05849V8.59926C11.9636 8.78693 11.9211 8.9671 11.8326 9.1285C11.7441 9.2899 11.6203 9.42502 11.4681 9.51886C11.3229 9.60895 11.1566 9.65774 10.9867 9.65774C10.8168 9.65774 10.6504 9.60895 10.5053 9.51886L4.32525 5.75035C4.17305 5.65652 4.04916 5.52139 3.96067 5.35999C3.87219 5.19859 3.82617 5.01467 3.82617 4.83075C3.82617 4.64307 3.87219 4.4629 3.96067 4.3015C4.04916 4.1401 4.17305 4.00498 4.32525 3.91114L10.5018 0.138879C10.6504 0.0487954 10.8168 0 10.9831 0C11.153 0 11.3194 0.0487954 11.4645 0.138879H11.4681Z" fill="white"/>
<path d="M16.006 4.06877C16.3104 4.25645 16.5653 4.5267 16.7387 4.8495C16.9122 5.17605 17.0042 5.5439 17.0007 5.91549V21.0683C17.0007 21.4437 16.9122 21.8115 16.7387 22.1343C16.5653 22.4609 16.3104 22.7274 16.006 22.9151C15.7123 23.099 15.376 23.1928 15.0362 23.1928C14.6964 23.1928 14.3602 23.0952 14.0664 22.9151L1.6638 15.3443C1.3594 15.1566 1.10809 14.8863 0.931115 14.5598C0.757677 14.237 0.662109 13.8691 0.662109 13.4938C0.662109 13.1184 0.754138 12.7544 0.931115 12.4278C1.10455 12.105 1.3594 11.8348 1.6638 11.6433L14.0699 4.06877C14.3637 3.88861 14.6999 3.79102 15.0397 3.79102C15.3795 3.79102 15.7158 3.88861 16.0096 4.06877H16.006Z" fill="#0771EA"/>
<path d="M11.3549 14.1619C11.5814 14.3007 11.769 14.4997 11.8964 14.7399C12.0274 14.9801 12.0946 15.2541 12.0911 15.5281V26.7436C12.0911 27.0213 12.0274 27.2916 11.8964 27.5318C11.7654 27.772 11.5779 27.971 11.3549 28.1098C11.1389 28.245 10.8912 28.3163 10.6363 28.3163C10.3815 28.3163 10.1373 28.245 9.91781 28.1098L0.739765 22.5059C0.513234 22.367 0.329178 22.1643 0.198215 21.9241C0.0672514 21.6876 0 21.4136 0 21.1358C0 20.8581 0.0672514 20.5878 0.198215 20.3476C0.329178 20.1074 0.513234 19.9085 0.739765 19.7658L9.92135 14.1581C10.1408 14.023 10.385 13.9517 10.6399 13.9517C10.8912 13.9517 11.1389 14.023 11.3584 14.1581L11.3549 14.1619Z" fill="#F869EA"/>
</svg>
