<svg viewBox="0 0 507 480" fill="none" xmlns="http://www.w3.org/2000/svg">
<g clip-path="url(#clip0_326_55)">
<path d="M488.897 0H154.103C144.105 0 136 8.09933 136 18.0904V410.91C136 420.901 144.105 429 154.103 429H488.897C498.895 429 507 420.901 507 410.91V18.0904C507 8.09933 498.895 0 488.897 0Z" fill="#211C55"/>
<path d="M369.374 106.082H216.294C205.046 106.082 195.917 96.9594 195.917 85.719C195.917 74.4787 205.046 65.3557 216.294 65.3557H369.343C380.591 65.3557 389.721 74.4787 389.721 85.719C389.721 96.9594 380.591 106.082 369.343 106.082H369.374Z" fill="#424280"/>
<path d="M274.186 168.885H216.294C205.046 168.885 195.917 159.762 195.917 148.522C195.917 137.281 205.046 128.158 216.294 128.158H274.186C285.434 128.158 294.564 137.281 294.564 148.522C294.564 159.762 285.434 168.885 274.186 168.885Z" fill="#424280"/>
<path d="M381.09 186.259C366.633 187.629 357.69 202.917 363.112 216.337C369.624 232.435 392.027 234.77 401.592 220.229C411.843 204.661 399.598 184.515 381.09 186.259Z" fill="#DA3A95"/>
<path d="M414.616 385.969H410.379C408.135 385.409 405.954 384.63 404.272 382.98C399.692 378.528 398.663 366.291 397.324 359.97C394.675 347.453 392.151 334.002 388.225 321.859C387.696 320.209 385.141 312.113 383.302 312.051C381.9 312.362 381.184 314.168 380.623 315.383C376.479 324.288 373.861 338.642 371.743 348.481C369.904 357.043 368.72 366.198 366.633 374.604C365.231 380.209 362.489 384.848 356.413 386C355.042 385.907 353.515 386.156 352.175 386C346.972 385.44 342.205 381.454 341.706 376.099C344.947 351.844 350.898 327.868 354.637 303.675C355.759 296.483 357.223 287.36 357.659 280.229C358.033 274.095 358.407 269.612 352.144 266.996C340.678 262.201 326.688 259.741 314.848 255.32C305.5 251.833 298.023 245.823 304.223 235.081C309.146 226.519 316.344 230.94 323.603 232.839C345.383 238.537 369.873 244.049 392.494 242.398C408.385 241.246 425.304 237.323 440.696 233.4C449.202 231.22 458.923 225.647 463.441 236.918C467.554 247.193 460.855 251.771 452.38 255.071C440.384 259.773 426.176 263.042 414.679 268.335C410.94 270.048 409.226 271.106 408.852 275.497C408.291 282.284 410.535 295.05 411.625 302.181C415.302 326.436 421.222 350.411 425.085 374.636C425.366 380.614 420.318 385.409 414.585 386L414.616 385.969Z" fill="#DA3A95"/>
<path d="M381.09 186.259C399.598 184.515 411.843 204.661 401.592 220.229C392.027 234.739 369.624 232.435 363.112 216.337C357.69 202.948 366.633 187.629 381.09 186.259Z" fill="#DA3A95"/>
</g>
<g clip-path="url(#clip1_326_55)">
<path d="M136.016 480.032C211.136 480.032 272.032 419.136 272.032 344.016C272.032 268.897 211.136 208 136.016 208C60.8965 208 0 268.897 0 344.016C0 419.136 60.8965 480.032 136.016 480.032Z" fill="#424280"/>
<path d="M213.573 345.991C213.606 344.728 213.606 343.466 213.573 342.171L226.715 325.76C227.395 324.886 227.881 323.882 228.107 322.814C228.334 321.746 228.302 320.613 228.01 319.545C225.841 311.453 222.637 303.684 218.429 296.433C217.879 295.494 217.102 294.685 216.195 294.07C215.289 293.455 214.221 293.099 213.153 292.97L192.274 290.639C191.4 289.733 190.526 288.859 189.62 287.985L187.16 267.042C187.031 265.941 186.642 264.905 186.059 263.999C185.444 263.093 184.635 262.316 183.697 261.766C176.446 257.558 168.677 254.353 160.585 252.217C159.517 251.925 158.416 251.893 157.315 252.119C156.247 252.346 155.211 252.832 154.37 253.511L137.991 266.589H134.171L117.76 253.479C116.886 252.799 115.883 252.314 114.814 252.087C113.746 251.861 112.613 251.893 111.545 252.184C103.453 254.353 95.6841 257.558 88.4334 261.766C87.4947 262.316 86.6854 263.093 86.0704 263.999C85.4554 264.905 85.0993 265.974 84.9699 267.042L82.6393 287.952C81.7329 288.826 80.8589 289.7 79.985 290.607L59.042 293.002C57.9414 293.132 56.9056 293.52 55.9993 294.103C55.0929 294.718 54.316 295.527 53.7658 296.466C49.5577 303.716 46.3532 311.485 44.1844 319.577C43.8931 320.645 43.8607 321.746 44.0873 322.847C44.3139 323.915 44.7994 324.951 45.4792 325.792L58.5564 342.171V345.991L45.4468 362.402C44.7671 363.276 44.2815 364.279 44.0549 365.348C43.8284 366.416 43.8607 367.549 44.1521 368.617C46.3208 376.709 49.5254 384.478 53.7334 391.729C54.2837 392.667 55.0605 393.477 55.9669 394.092C56.8732 394.707 57.9414 395.063 59.0096 395.192L79.8879 397.523C80.7618 398.429 81.6358 399.303 82.5422 400.177L84.9699 421.12C85.0993 422.221 85.4878 423.256 86.0704 424.163C86.6854 425.069 87.4947 425.846 88.4334 426.396C95.6841 430.604 103.453 433.809 111.545 435.978C112.613 436.269 113.714 436.301 114.814 436.075C115.883 435.848 116.918 435.363 117.76 434.683L134.139 421.606C135.401 421.638 136.664 421.638 137.959 421.606L154.37 434.748C155.244 435.427 156.247 435.913 157.315 436.139C158.384 436.366 159.517 436.334 160.585 436.042C168.677 433.874 176.446 430.669 183.697 426.461C184.635 425.911 185.444 425.134 186.059 424.228C186.674 423.321 187.031 422.253 187.16 421.185L189.491 400.307C190.397 399.433 191.271 398.559 192.145 397.652L213.088 395.192C214.188 395.063 215.224 394.674 216.131 394.092C217.037 393.477 217.814 392.667 218.364 391.729C222.572 384.478 225.777 376.709 227.945 368.617C228.237 367.549 228.269 366.448 228.043 365.348C227.816 364.279 227.33 363.244 226.651 362.402L213.573 346.023V345.991ZM136.081 379.299C129.122 379.299 122.292 377.227 116.53 373.375C110.736 369.491 106.237 364.02 103.55 357.579C100.896 351.137 100.183 344.049 101.543 337.219C102.903 330.389 106.269 324.109 111.189 319.189C116.109 314.269 122.389 310.902 129.219 309.543C136.049 308.183 143.138 308.895 149.579 311.55C156.021 314.204 161.523 318.736 165.375 324.53C169.26 330.324 171.299 337.122 171.299 344.081C171.299 353.436 167.577 362.37 160.973 368.973C154.37 375.576 145.404 379.299 136.081 379.299Z" fill="white"/>
</g>
<defs>
<clipPath id="clip0_326_55">
<rect width="371" height="429" fill="white" transform="translate(136)"/>
</clipPath>
<clipPath id="clip1_326_55">
<rect width="272" height="272" fill="white" transform="translate(0 208)"/>
</clipPath>
</defs>
</svg>
