<svg viewBox="0 0 19 16" fill="none" xmlns="http://www.w3.org/2000/svg">
<path d="M10.5352 1.19957C10.4329 1.29986 10.3517 1.41903 10.2963 1.55025C10.2409 1.68147 10.2123 1.82215 10.2123 1.96423C10.2123 2.10631 10.2409 2.247 10.2963 2.37822C10.3517 2.50943 10.4329 2.62861 10.5352 2.7289L15.2456 7.36099L1.79778 7.36099C1.50663 7.36099 1.22741 7.47472 1.02153 7.67717C0.81566 7.87962 0.700001 8.15421 0.700001 8.44052C0.700001 8.72682 0.81566 9.00141 1.02153 9.20386C1.22741 9.40631 1.50663 9.52005 1.79778 9.52005H15.2456L10.5352 14.1539C10.329 14.3567 10.2131 14.6318 10.2131 14.9186C10.2131 15.2054 10.329 15.4805 10.5352 15.6833C10.7415 15.8861 11.0212 16 11.3128 16C11.6045 16 11.8842 15.8861 12.0904 15.6833L18.6771 9.20608C18.7795 9.10579 18.8607 8.98662 18.9161 8.8554C18.9715 8.72418 19 8.5835 19 8.44142C19 8.29933 18.9715 8.15865 18.9161 8.02743C18.8607 7.89621 18.7795 7.77704 18.6771 7.67675L12.0904 1.19957C11.9884 1.09893 11.8672 1.01907 11.7338 0.964586C11.6004 0.9101 11.4573 0.882051 11.3128 0.882051C11.1683 0.882051 11.0253 0.9101 10.8918 0.964586C10.7584 1.01907 10.6372 1.09893 10.5352 1.19957Z" fill="currentColor"/>
</svg>
