<svg viewBox="0 0 23 22" fill="none" xmlns="http://www.w3.org/2000/svg">
<path d="M17.1094 0H2.68804C1.32179 0 0.214233 1.11152 0.214233 2.48265V16.9555C0.214233 18.3266 1.32179 19.4381 2.68804 19.4381H17.1094C18.4756 19.4381 19.5832 18.3266 19.5832 16.9555V2.48265C19.5832 1.11152 18.4756 0 17.1094 0Z" fill="#120D42"/>
<path d="M22.5445 19.3484L20.4143 17.2184C21.5909 15.0883 21.2787 12.351 19.4744 10.5434C17.2893 8.35842 13.732 8.35842 11.5435 10.5434C9.35838 12.7284 9.35838 16.2854 11.5435 18.4738C12.6378 19.568 14.0716 20.1133 15.5089 20.1133C16.4454 20.1133 17.3785 19.8767 18.2189 19.4136L20.3491 21.5437C20.651 21.8455 21.0489 21.9999 21.4468 21.9999C21.8447 21.9999 22.2427 21.849 22.5445 21.5437C23.1517 20.9366 23.1517 19.9556 22.5445 19.3484ZM13.7389 16.2751C12.7647 15.3009 12.7647 13.7128 13.7389 12.7352C14.226 12.2481 14.8675 12.0046 15.5089 12.0046C16.1504 12.0046 16.7919 12.2481 17.279 12.7352C18.2532 13.7094 18.2532 15.2975 17.279 16.2751C16.3013 17.2492 14.7165 17.2492 13.7389 16.2751Z" fill="#F869EA"/>
<path d="M12.3959 5.56353H4.40821C3.82063 5.56353 3.34375 5.08495 3.34375 4.49527C3.34375 3.90558 3.82063 3.427 4.40821 3.427H12.4002C12.9878 3.427 13.4646 3.90558 13.4646 4.49527C13.4646 5.08495 12.9878 5.56353 12.4002 5.56353H12.3959Z" fill="white"/>
<path d="M7.42701 8.85381H4.40394C3.81636 8.85381 3.33948 8.37523 3.33948 7.78555C3.33948 7.19587 3.81636 6.71729 4.40394 6.71729H7.42701C8.01459 6.71729 8.49147 7.19587 8.49147 7.78555C8.49147 8.37523 8.01459 8.85381 7.42701 8.85381Z" fill="#F869EA"/>
</svg>
