<svg viewBox="0 0 23 23" fill="none" xmlns="http://www.w3.org/2000/svg">
<path d="M16.4855 0H2.41384C1.08071 0 0 1.09676 0 2.44968V16.7303C0 18.0833 1.08071 19.18 2.41384 19.18H16.4855C17.8187 19.18 18.8994 18.0833 18.8994 16.7303V2.44968C18.8994 1.09676 17.8187 0 16.4855 0Z" fill="#120D42"/>
<g clip-path="url(#clip0_101_1936)">
<path d="M15.7167 20.2911C19.1746 20.2911 21.9778 17.4843 21.9778 14.0219C21.9778 10.5596 19.1746 7.75281 15.7167 7.75281C12.2588 7.75281 9.45557 10.5596 9.45557 14.0219C9.45557 17.4843 12.2588 20.2911 15.7167 20.2911Z" fill="#F869EA"/>
<path d="M14.2541 14.5482H17.1827C18.1016 14.5482 18.8454 15.2929 18.8454 16.2131V19.9581C18.8454 20.3519 18.5236 20.6741 18.1302 20.6741H13.3066C12.9132 20.6741 12.5914 20.3519 12.5914 19.9581V16.2131C12.5914 15.2929 13.3352 14.5482 14.2541 14.5482Z" fill="#120D42"/>
<path d="M15.7167 14.0219C16.9114 14.0219 17.88 13.0521 17.88 11.8558C17.88 10.6595 16.9114 9.6897 15.7167 9.6897C14.5219 9.6897 13.5533 10.6595 13.5533 11.8558C13.5533 13.0521 14.5219 14.0219 15.7167 14.0219Z" fill="white"/>
</g>
<path d="M11.8863 5.48963H4.09225C3.51891 5.48963 3.05359 5.0174 3.05359 4.43555C3.05359 3.8537 3.51891 3.38147 4.09225 3.38147H11.8905C12.4638 3.38147 12.9291 3.8537 12.9291 4.43555C12.9291 5.0174 12.4638 5.48963 11.8905 5.48963H11.8863Z" fill="white"/>
<path d="M7.03788 8.73621H4.08809C3.51476 8.73621 3.04944 8.26398 3.04944 7.68213C3.04944 7.10028 3.51476 6.62805 4.08809 6.62805H7.03788C7.61122 6.62805 8.07653 7.10028 8.07653 7.68213C8.07653 8.26398 7.61122 8.73621 7.03788 8.73621Z" fill="#F869EA"/>
<defs>
<clipPath id="clip0_101_1936">
<rect width="12.5222" height="12.9213" fill="white" transform="translate(9.45557 7.75281)"/>
</clipPath>
</defs>
</svg>
