<svg viewBox="0 0 25 21" fill="none" xmlns="http://www.w3.org/2000/svg">
<g clip-path="url(#clip0_101_1945)">
<path d="M20.8912 4.22156H4.10507C2.94349 4.22156 2.00183 5.18651 2.00183 6.37683V17.6725C2.00183 18.8629 2.94349 19.8278 4.10507 19.8278H20.8912C22.0528 19.8278 22.9944 18.8629 22.9944 17.6725V6.37683C22.9944 5.18651 22.0528 4.22156 20.8912 4.22156Z" fill="#120D42"/>
<path d="M23.9502 17.1532H1.04981C0.470017 17.1532 0 17.6348 0 18.229V19.9243C0 20.5184 0.470017 21 1.04981 21H23.9502C24.53 21 25 20.5184 25 19.9243V18.229C25 17.6348 24.53 17.1532 23.9502 17.1532Z" fill="#42427C"/>
<path d="M10.5669 12.0228H5.7776C5.38374 12.0228 5.06445 12.35 5.06445 12.7536V13.4288C5.06445 13.8324 5.38374 14.1596 5.7776 14.1596H10.5669C10.9608 14.1596 11.2801 13.8324 11.2801 13.4288V12.7536C11.2801 12.35 10.9608 12.0228 10.5669 12.0228Z" fill="#F869EA"/>
<path d="M21.2714 18.8967L20.7682 19.4123C20.7247 19.4568 20.6704 19.4939 20.6125 19.5199C20.5546 19.5459 20.4931 19.557 20.4315 19.557C20.37 19.557 20.3084 19.5459 20.2505 19.5199C20.1926 19.4939 20.1419 19.4605 20.0948 19.4123L17.8613 17.1235L17.1011 19.1526V19.1675C17.0468 19.2825 16.9671 19.3826 16.8658 19.4494C16.7644 19.5199 16.6413 19.5533 16.5219 19.5533H16.4893C16.3626 19.5496 16.2395 19.5013 16.1345 19.4234C16.0332 19.3455 15.9571 19.2343 15.9173 19.1081L13.8503 12.6275C13.8141 12.5125 13.8105 12.3938 13.8358 12.2751C13.8611 12.1601 13.9191 12.0525 14.0023 11.9672C14.0856 11.8818 14.1869 11.8225 14.3028 11.7965C14.415 11.7706 14.5345 11.7743 14.6467 11.8114L20.9709 13.9295C21.0904 13.9703 21.199 14.0483 21.275 14.1521C21.351 14.256 21.3981 14.3821 21.4017 14.5119C21.4089 14.6418 21.3763 14.7716 21.3076 14.8829C21.2388 14.9942 21.141 15.0832 21.0252 15.1352H21.0107L19.0306 15.9216L21.2641 18.2104C21.3546 18.3032 21.4017 18.4256 21.4017 18.5554C21.4017 18.6852 21.351 18.8077 21.2641 18.9004L21.2714 18.8967Z" fill="#F869EA"/>
<path d="M12.8982 10.7133C15.7852 10.7133 18.1256 8.31505 18.1256 5.35665C18.1256 2.39825 15.7852 0 12.8982 0C10.0113 0 7.6709 2.39825 7.6709 5.35665C7.6709 8.31505 10.0113 10.7133 12.8982 10.7133Z" fill="#42427C"/>
<path d="M11.6927 6.35077C11.6927 6.69577 11.9244 6.88495 12.29 6.88495C12.8439 6.88495 13.6873 6.31739 14.2412 5.56434L14.5634 5.1229C14.6865 4.9671 14.8095 4.88548 14.9471 4.88548C15.1788 4.88548 15.3453 5.07467 15.3453 5.34176C15.3453 5.72014 15.0376 6.25432 14.5018 6.82189C13.7199 7.65655 12.7678 8.16105 11.9678 8.16105C11.0773 8.16105 10.4474 7.50075 10.4474 6.5548C10.4474 4.75936 12.1995 2.55957 13.6113 2.55957C14.2086 2.55957 14.6104 3.00101 14.6104 3.63164C14.6104 4.84468 13.4122 6.08739 12.2321 6.08739C12.0764 6.08739 11.9859 6.05401 11.8013 6.00949C11.7253 6.15046 11.6927 6.22836 11.6927 6.35448V6.35077ZM12.4601 4.91887C12.9199 4.91887 13.4593 4.4292 13.4593 4.02115C13.4593 3.90986 13.3977 3.83196 13.3072 3.83196C13.0755 3.83196 12.5868 4.31792 12.261 4.88548C12.337 4.90032 12.3841 4.91887 12.4601 4.91887Z" fill="white"/>
</g>
<defs>
<clipPath id="clip0_101_1945">
<rect width="25" height="21" fill="white"/>
</clipPath>
</defs>
</svg>
