<svg width="24" height="25" viewBox="0 0 24 25" fill="none" xmlns="http://www.w3.org/2000/svg">
<path d="M24 2.3946V18.8145C24 19.317 23.8004 19.7989 23.4452 20.1542C23.0899 20.5095 22.6081 20.7091 22.1056 20.7091C21.6032 20.7091 21.1214 20.5095 20.7661 20.1542C20.4109 19.7989 20.2113 19.317 20.2113 18.8145V6.97322L3.23947 23.9441C2.8836 24.3 2.40092 24.5 1.89764 24.5C1.39435 24.5 0.911682 24.3 0.555806 23.9441C0.199929 23.5882 0 23.1055 0 22.6021C0 22.0988 0.199929 21.616 0.555806 21.2601L17.5276 4.2892H5.68792C5.18551 4.2892 4.70367 4.08959 4.34841 3.73429C3.99315 3.37898 3.79357 2.89708 3.79357 2.3946C3.79357 1.89212 3.99315 1.41022 4.34841 1.05492C4.70367 0.699609 5.18551 0.5 5.68792 0.5H22.1056C22.6081 0.5 23.0899 0.699609 23.4452 1.05492C23.8004 1.41022 24 1.89212 24 2.3946Z"/>
</svg>
