<svg viewBox="0 0 263 269" fill="none" xmlns="http://www.w3.org/2000/svg">
<g clip-path="url(#clip0_103_250)">
<path d="M67.2597 207.167H53.0109V30.0604C53.0109 23.6031 58.2671 18.3408 64.7345 18.3408H178.789C185.248 18.3408 190.512 23.5952 190.512 30.0604V53.9426H176.264V32.5847H67.2597V207.167Z" fill="white"/>
<path d="M258.408 41.6691H144.354C141.814 41.6691 139.755 43.7275 139.755 46.2667V203.266C139.755 205.805 141.814 207.864 144.354 207.864H258.408C260.948 207.864 263.007 205.805 263.007 203.266V46.2667C263.007 43.7275 260.948 41.6691 258.408 41.6691Z" fill="#0771EA"/>
<path d="M192.626 61.7688H160.764C158.224 61.7688 156.165 63.8272 156.165 66.3664V99.9978C156.165 102.537 158.224 104.595 160.764 104.595H192.626C195.166 104.595 197.225 102.537 197.225 99.9978V66.3664C197.225 63.8272 195.166 61.7688 192.626 61.7688Z" fill="#2E8EFB"/>
<path d="M239.006 61.7688H207.144C204.604 61.7688 202.545 63.8272 202.545 66.3664V99.9978C202.545 102.537 204.604 104.595 207.144 104.595H239.006C241.546 104.595 243.605 102.537 243.605 99.9978V66.3664C243.605 63.8272 241.546 61.7688 239.006 61.7688Z" fill="#2E8EFB"/>
<path d="M238.879 141.709C242.779 141.709 245.94 138.548 245.94 134.65C245.94 130.752 242.779 127.591 238.879 127.591C234.98 127.591 231.818 130.752 231.818 134.65C231.818 138.548 234.98 141.709 238.879 141.709Z" fill="#120D42"/>
<path d="M238.871 133.067H220.57V136.787H238.871V133.067Z" fill="#120D42"/>
<path d="M104.576 103.693H81.6114C81.0019 103.693 80.4161 103.448 79.9887 103.013C79.5612 102.577 79.3158 101.992 79.3158 101.375C79.3158 100.757 79.5612 100.172 79.9887 99.7366C80.4161 99.3014 81.0019 99.0561 81.6114 99.0561H104.576C105.185 99.0561 105.771 99.3014 106.199 99.7366C106.626 100.172 106.872 100.757 106.872 101.375C106.872 101.992 106.626 102.577 106.199 103.013C105.771 103.448 105.185 103.693 104.576 103.693Z" fill="white"/>
<path d="M97.0081 112.904H81.9122C81.3027 112.904 80.7169 112.659 80.2894 112.224C79.862 111.789 79.6166 111.203 79.6166 110.586C79.6166 109.969 79.862 109.383 80.2894 108.948C80.7169 108.512 81.3027 108.267 81.9122 108.267H97.0081C97.6177 108.267 98.2034 108.512 98.6309 108.948C99.0584 109.383 99.3038 109.969 99.3038 110.586C99.3038 111.203 99.0584 111.789 98.6309 112.224C98.2034 112.659 97.6177 112.904 97.0081 112.904Z" fill="#2E8EFB"/>
<path d="M115.651 94.4268H81.6197C81.0102 94.4268 80.4244 94.1815 79.997 93.7463C79.5695 93.3111 79.3241 92.7255 79.3241 92.1083C79.3241 91.491 79.5695 90.9054 79.997 90.4702C80.4244 90.035 81.0102 89.7897 81.6197 89.7897H115.651C116.26 89.7897 116.846 90.035 117.274 90.4702C117.701 90.9054 117.946 91.491 117.946 92.1083C117.946 92.7255 117.701 93.3111 117.274 93.7463C116.846 94.1815 116.26 94.4268 115.651 94.4268Z" fill="white"/>
<path d="M89.0921 46.3696C86.559 46.607 84.9837 49.2975 85.9336 51.6477C87.0736 54.4728 91.0078 54.8843 92.686 52.3362C94.483 49.6061 92.3377 46.0689 89.0921 46.3696Z" fill="#F869EA"/>
<path d="M94.9817 81.4333H94.2375C93.8417 81.3304 93.4618 81.1959 93.161 80.9031C92.3614 80.1197 92.1715 77.9752 91.9419 76.8594C91.4828 74.6595 91.0315 72.3014 90.3429 70.1727C90.2479 69.8799 89.7966 68.4634 89.48 68.4555C89.2346 68.5109 89.1079 68.8275 89.013 69.0411C88.2847 70.6 87.8256 73.1244 87.4535 74.8495C87.1289 76.353 86.9231 77.9594 86.559 79.4312C86.3136 80.4125 85.8307 81.2275 84.77 81.4333C84.5325 81.4175 84.2554 81.457 84.0259 81.4333C83.1155 81.3383 82.2764 80.634 82.1893 79.6924C82.7593 75.435 83.8042 71.2252 84.4612 66.9758C84.6591 65.7175 84.9124 64.1111 84.9916 62.8609C85.0549 61.7846 85.1183 60.9933 84.0259 60.5344C82.0152 59.6955 79.5612 59.2603 77.4793 58.4848C75.8407 57.8755 74.5266 56.8151 75.6111 54.9318C76.474 53.4282 77.7405 54.2037 79.015 54.5361C82.8384 55.5411 87.1369 56.4986 91.1107 56.2137C93.8972 56.008 96.8657 55.3195 99.5729 54.6311C101.069 54.2512 102.771 53.27 103.571 55.2483C104.291 57.0525 103.119 57.8518 101.631 58.4373C99.5255 59.2603 97.0319 59.838 95.0133 60.7638C94.3563 61.0645 94.0555 61.2545 93.9921 62.022C93.8972 63.209 94.293 65.4564 94.4829 66.7067C95.1321 70.964 96.1611 75.1739 96.8498 79.4233C96.8973 80.4758 96.0107 81.3146 95.0054 81.4175L94.9817 81.4333Z" fill="#F869EA"/>
<path d="M89.0922 46.3696C92.3378 46.061 94.4909 49.5982 92.6861 52.3362C91.0079 54.8843 87.0736 54.4807 85.9337 51.6477C84.9838 49.2975 86.5511 46.607 89.0922 46.3696Z" fill="#F869EA"/>
<path d="M158.556 144.766L139.803 125.875C139.151 125.217 138.307 124.766 137.4 124.586C136.492 124.406 135.546 124.496 134.689 124.857C133.833 125.217 133.104 125.823 132.58 126.596C132.069 127.369 131.788 128.284 131.788 129.225V143.4H108.368C107.128 143.4 105.94 143.903 105.058 144.779C104.175 145.668 103.69 146.867 103.69 148.117C103.69 149.367 104.188 150.578 105.058 151.454C105.94 152.343 107.128 152.833 108.368 152.833H131.8V167.008C131.8 167.949 132.069 168.864 132.593 169.637C133.104 170.41 133.846 171.016 134.702 171.377C135.559 171.737 136.505 171.828 137.412 171.647C138.32 171.467 139.151 171.016 139.816 170.359L158.569 151.454C159.004 151.016 159.349 150.501 159.592 149.921C159.822 149.341 159.95 148.735 159.95 148.117C159.95 147.498 159.822 146.879 159.592 146.312C159.361 145.733 159.004 145.217 158.569 144.779L158.556 144.766Z" fill="white"/>
<path opacity="0.2" d="M45.7364 130.619L37.938 122.84C37.6669 122.57 37.316 122.384 36.9386 122.31C36.5612 122.236 36.1678 122.273 35.8116 122.421C35.4555 122.57 35.1525 122.819 34.9345 123.138C34.7219 123.456 34.6049 123.833 34.6049 124.22V130.057H24.8663C24.3506 130.057 23.8562 130.264 23.4895 130.625C23.1227 130.991 22.9207 131.484 22.9207 131.999C22.9207 132.514 23.128 133.012 23.4895 133.373C23.8562 133.739 24.3506 133.941 24.8663 133.941H34.6103V139.778C34.6103 140.165 34.7219 140.542 34.9398 140.86C35.1525 141.179 35.4608 141.428 35.817 141.577C36.1731 141.725 36.5665 141.762 36.9439 141.688C37.3214 141.614 37.6669 141.428 37.9433 141.157L45.7417 133.373C45.9224 133.193 46.066 132.981 46.167 132.742C46.2627 132.503 46.3158 132.254 46.3158 131.999C46.3158 131.744 46.2627 131.489 46.167 131.256C46.0713 131.017 45.9224 130.805 45.7417 130.625L45.7364 130.619Z" fill="#2E8EFB"/>
</g>
<path opacity="0.2" d="M23.6488 144.431L18.4499 139.319C18.2692 139.141 18.0353 139.019 17.7837 138.971C17.532 138.922 17.2698 138.946 17.0323 139.044C16.7949 139.141 16.5929 139.305 16.4476 139.515C16.3058 139.724 16.2279 139.971 16.2279 140.226V144.062H9.73543C9.39167 144.062 9.06208 144.198 8.81755 144.435C8.57302 144.675 8.43835 145 8.43835 145.338C8.43835 145.676 8.57657 146.004 8.81755 146.241C9.06208 146.481 9.39167 146.614 9.73543 146.614H16.2314V150.45C16.2314 150.704 16.3058 150.952 16.4511 151.161C16.5929 151.37 16.7985 151.534 17.0359 151.632C17.2733 151.729 17.5356 151.754 17.7872 151.705C18.0388 151.656 18.2692 151.534 18.4535 151.356L23.6524 146.241C23.7729 146.122 23.8686 145.983 23.9359 145.826C23.9997 145.669 24.0351 145.505 24.0351 145.338C24.0351 145.17 23.9997 145.003 23.9359 144.85C23.8721 144.693 23.7729 144.553 23.6524 144.435L23.6488 144.431Z" fill="#2E8EFB"/>
<path d="M60.3238 269C93.6397 269 120.648 242.002 120.648 208.697C120.648 175.393 93.6397 148.395 60.3238 148.395C27.0079 148.395 0 175.393 0 208.697C0 242.002 27.0079 269 60.3238 269Z" fill="#F869EA"/>
<path d="M81.8089 201.217H39.952C35.9831 201.217 32.7656 204.433 32.7656 208.401V242.082C32.7656 246.05 35.9831 249.266 39.952 249.266H81.8089C85.7778 249.266 88.9953 246.05 88.9953 242.082V208.401C88.9953 204.433 85.7778 201.217 81.8089 201.217Z" fill="#120D42"/>
<path d="M62.3027 166.175V166.15H57.6643V166.175C46.6311 166.583 37.7872 175.671 37.7872 186.799V188.889H45.5055V186.799C45.5055 179.677 51.3066 173.878 58.4312 173.878H61.5234C68.648 173.878 74.4491 179.677 74.4491 186.799V206.162H82.1673V186.799C82.1673 175.671 73.3235 166.583 62.2903 166.175H62.3027Z" fill="#120D42"/>
<path d="M68.9819 222.237C68.9819 217.81 65.3949 214.212 60.9544 214.212C56.5139 214.212 52.9269 217.798 52.9269 222.237C52.9269 225.637 55.042 228.53 58.0229 229.705V239.597H63.8735V229.705C66.8544 228.53 68.9695 225.637 68.9695 222.237H68.9819Z" fill="#F869EA"/>
<ellipse cx="200.461" cy="26.8293" rx="3.19025" ry="3.18313" fill="white"/>
<ellipse cx="212.31" cy="26.8292" rx="3.19025" ry="3.18313" fill="white"/>
<ellipse cx="224.16" cy="26.8292" rx="3.19025" ry="3.18313" fill="white"/>
<ellipse cx="236.009" cy="26.8292" rx="3.19025" ry="3.18313" fill="white"/>
<ellipse cx="247.858" cy="26.8292" rx="3.19025" ry="3.18313" fill="white"/>
<ellipse cx="259.708" cy="26.8292" rx="3.19025" ry="3.18313" fill="white"/>
<ellipse cx="200.461" cy="15.0063" rx="3.19025" ry="3.18313" fill="white"/>
<ellipse cx="212.31" cy="15.0063" rx="3.19025" ry="3.18313" fill="white"/>
<ellipse cx="224.16" cy="15.0063" rx="3.19025" ry="3.18313" fill="white"/>
<ellipse cx="236.009" cy="15.0063" rx="3.19025" ry="3.18313" fill="white"/>
<ellipse cx="247.858" cy="15.0063" rx="3.19025" ry="3.18313" fill="white"/>
<ellipse cx="259.708" cy="15.0063" rx="3.19025" ry="3.18313" fill="white"/>
<ellipse cx="200.461" cy="3.18313" rx="3.19025" ry="3.18313" fill="white"/>
<ellipse cx="212.31" cy="3.18313" rx="3.19025" ry="3.18313" fill="white"/>
<ellipse cx="224.16" cy="3.18313" rx="3.19025" ry="3.18313" fill="white"/>
<ellipse cx="236.009" cy="3.18313" rx="3.19025" ry="3.18313" fill="white"/>
<ellipse cx="247.858" cy="3.18313" rx="3.19025" ry="3.18313" fill="white"/>
<ellipse cx="259.708" cy="3.18313" rx="3.19025" ry="3.18313" fill="white"/>
<ellipse cx="143.051" cy="245.845" rx="3.15392" ry="3.14689" fill="white"/>
<ellipse cx="154.765" cy="245.845" rx="3.15392" ry="3.14689" fill="white"/>
<ellipse cx="166.48" cy="245.845" rx="3.15392" ry="3.14689" fill="white"/>
<ellipse cx="178.194" cy="245.845" rx="3.15392" ry="3.14689" fill="white"/>
<ellipse cx="189.909" cy="245.845" rx="3.15392" ry="3.14689" fill="white"/>
<ellipse cx="201.623" cy="245.845" rx="3.15392" ry="3.14689" fill="white"/>
<ellipse cx="143.051" cy="234.156" rx="3.15392" ry="3.14689" fill="white"/>
<ellipse cx="154.765" cy="234.156" rx="3.15392" ry="3.14689" fill="white"/>
<ellipse cx="166.48" cy="234.156" rx="3.15392" ry="3.14689" fill="white"/>
<ellipse cx="178.194" cy="234.156" rx="3.15392" ry="3.14689" fill="white"/>
<ellipse cx="189.909" cy="234.156" rx="3.15392" ry="3.14689" fill="white"/>
<ellipse cx="201.623" cy="234.156" rx="3.15392" ry="3.14689" fill="white"/>
<ellipse cx="143.051" cy="222.468" rx="3.15392" ry="3.14689" fill="white"/>
<ellipse cx="154.765" cy="222.468" rx="3.15392" ry="3.14689" fill="white"/>
<ellipse cx="166.48" cy="222.468" rx="3.15392" ry="3.14689" fill="white"/>
<ellipse cx="178.194" cy="222.468" rx="3.15392" ry="3.14689" fill="white"/>
<ellipse cx="189.909" cy="222.468" rx="3.15392" ry="3.14689" fill="white"/>
<ellipse cx="201.623" cy="222.468" rx="3.15392" ry="3.14689" fill="white"/>
<ellipse cx="212.988" cy="245.845" rx="3.15392" ry="3.14689" fill="white"/>
<ellipse cx="224.703" cy="245.845" rx="3.15392" ry="3.14689" fill="white"/>
<ellipse cx="236.417" cy="245.845" rx="3.15392" ry="3.14689" fill="white"/>
<ellipse cx="248.132" cy="245.845" rx="3.15392" ry="3.14689" fill="white"/>
<ellipse cx="259.846" cy="245.845" rx="3.15392" ry="3.14689" fill="white"/>
<ellipse cx="212.988" cy="234.157" rx="3.15392" ry="3.14689" fill="white"/>
<ellipse cx="224.703" cy="234.156" rx="3.15392" ry="3.14689" fill="white"/>
<ellipse cx="236.417" cy="234.156" rx="3.15392" ry="3.14689" fill="white"/>
<ellipse cx="248.132" cy="234.156" rx="3.15392" ry="3.14689" fill="white"/>
<ellipse cx="259.846" cy="234.156" rx="3.15392" ry="3.14689" fill="white"/>
<ellipse cx="212.988" cy="222.468" rx="3.15392" ry="3.14689" fill="white"/>
<ellipse cx="224.703" cy="222.468" rx="3.15392" ry="3.14689" fill="white"/>
<ellipse cx="236.417" cy="222.468" rx="3.15392" ry="3.14689" fill="white"/>
<ellipse cx="248.131" cy="222.468" rx="3.15392" ry="3.14689" fill="white"/>
<ellipse cx="259.846" cy="222.468" rx="3.15392" ry="3.14689" fill="white"/>
<defs>
<clipPath id="clip0_103_250">
<rect width="242.864" height="189.523" fill="white" transform="translate(20.1355 18.3408)"/>
</clipPath>
</defs>
</svg>
