<svg viewBox="0 0 285 263" fill="none" xmlns="http://www.w3.org/2000/svg">
<g clip-path="url(#clip0_103_1010)">
<path d="M263.954 28.8657H59.0705C54.5076 28.8657 50.8086 32.5755 50.8086 37.1518V228.929C50.8086 233.505 54.5076 237.215 59.0705 237.215H263.954C268.517 237.215 272.216 233.505 272.216 228.929V37.1518C272.216 32.5755 268.517 28.8657 263.954 28.8657Z" fill="white"/>
<path d="M223.86 209.336C234.742 222.083 234.828 243.659 242.635 259.132C232.145 253.93 220.424 248.583 209.054 251.548C205.251 252.541 201.637 254.447 197.712 254.513C191.445 254.619 186.207 250.092 181.686 245.857C178.925 243.262 172.056 237.051 170.675 233.557C169.295 230.063 173.876 229.047 177.003 226.889C183.148 232.475 189.293 238.074 195.438 243.659C198.023 246.015 201.258 248.557 204.709 247.776C208.377 246.942 210.056 242.892 211.179 239.384C214.076 230.331 216.972 221.277 219.869 212.237C220.559 213.031 223.17 208.542 223.86 209.336Z" fill="#F869EA"/>
<path d="M185.999 184.489C176.116 197.296 169.973 206.324 160.09 219.131C165.38 213.754 166.93 212.143 172.22 206.766C178.121 211.316 184.009 215.879 189.91 220.429C190.92 221.199 192.029 222.012 193.294 221.983C195.2 221.926 196.451 220.029 197.376 218.347C203.789 206.623 210.216 194.9 216.63 183.191C217.284 182.008 217.938 180.553 217.269 179.369C216.374 177.758 213.999 178.114 212.25 178.685C203.632 181.509 195.001 184.318 186.383 187.142" fill="#F869EA"/>
<path d="M222.673 152.101C212.691 168.901 209.818 164.537 216.516 182.921C218.464 183.063 220.426 183.192 222.375 183.334C218.592 190.265 221.095 199.935 227.75 204.156C233.85 208.021 241.671 207.237 248.824 206.31C250.374 206.11 252.137 205.768 252.877 204.384C253.687 202.887 252.749 200.976 251.384 199.963C250.018 198.951 248.326 198.523 246.819 197.767C242.496 195.571 240.135 190.85 238.074 186.457C235.087 180.111 232.115 173.765 229.129 167.404C227.11 163.097 225.048 158.234 226.598 153.741C228.717 147.566 237.05 144.043 236.723 137.511C236.452 132.078 217.326 122.308 212.179 120.597" fill="#42427C"/>
<path d="M104.888 214.082C104.191 212.77 102.015 213.141 101.247 214.396C100.48 215.651 100.679 217.277 100.991 218.717C102.584 226.205 106.153 233.264 111.23 238.998C111.6 239.425 112.069 239.868 112.638 239.839C113.633 239.796 113.903 238.441 113.846 237.429C113.477 231.011 111.813 224.679 108.983 218.917C107.732 216.379 106.111 213.797 103.523 212.656" fill="#EAA9C7"/>
<path d="M214.866 186.115C206.149 199.521 200.106 214.667 197.191 230.398C189.782 222.768 182.387 215.138 174.979 207.522C169.305 215.537 165.039 224.565 162.451 234.049C165.309 233.749 167.442 231.424 169.476 229.399C171.509 227.374 174.182 225.392 176.984 226.005C179.344 226.533 180.894 228.7 182.331 230.654C188.033 238.327 195.527 244.645 204.03 248.966C207.116 250.535 210.927 251.819 213.913 250.05C216.459 248.538 217.412 245.358 218.023 242.463C221.891 224.137 220.711 204.769 214.653 187.056" fill="#EAA9C7"/>
<path d="M183.255 105.208C168.822 111.412 157.578 138.678 161.275 153.981C164.973 169.283 183.155 170.841 198.812 169.757C196.736 173.593 194.66 177.444 192.583 181.28C197.376 184.275 204.173 183.505 208.169 179.498C212.165 175.504 212.961 168.673 209.975 163.867C213.217 162.94 215.876 160.216 216.729 156.95C217.142 155.381 221.578 151.488 221.592 149.876C221.649 144.756 217.298 141.89 217.369 136.755C217.511 124.376 216.843 110.157 207.159 102.484C199.338 96.2806 186.853 97.1506 179.956 104.367" fill="#EAA9C7"/>
<path d="M247.487 147.837C237.775 143.929 227.508 139.836 220.071 132.163C213.515 125.389 209.477 115.334 212.762 106.078C213.202 104.838 212.051 103.454 210.799 103.497C203.433 103.74 196.067 103.982 188.687 104.239C185.061 104.353 181.435 104.481 177.809 104.595C174.182 104.709 170.77 105.094 167.3 104.895C166.56 104.852 165.21 104.795 164.769 104.082C164.029 102.855 166.12 101.244 166.93 100.631C169.476 98.7052 172.291 97.0508 175.05 95.4535C180.738 92.1591 186.71 89.3638 192.896 87.1389C199.836 84.6289 206.988 82.8176 214.269 81.691L211.766 79.1809L208.624 89.2497C208.097 90.9183 210.131 92.5013 211.61 91.5601C217.554 87.7522 224.422 86.0693 231.447 86.6683L230.011 83.1885C227.906 85.3134 225.674 87.6809 225.005 90.7044C224.38 93.5567 225.034 96.6515 227.437 98.4912C229.84 100.331 232.727 100.245 235.471 100.06C239.04 99.8176 242.61 99.5038 246.179 99.2329C250.943 98.8906 258.849 99.2329 257.086 106.221C255.55 112.282 248.881 115.292 246.421 120.911C244.188 126.002 245.041 132.249 250.673 134.516C253.317 135.586 256.218 135.515 259.006 135.8C262.106 136.114 265.248 136.927 268.078 138.239C273.652 140.82 278.203 145.369 279.909 151.388C281.616 157.406 279.739 163.282 275.7 167.974C270.751 173.722 264.267 178.228 258.423 183.006C251.625 188.554 244.842 194.102 238.045 199.664C236.012 201.318 238.912 204.199 240.932 202.559C246.99 197.61 253.047 192.661 259.105 187.712C264.509 183.291 270.154 179.07 275.259 174.306C279.667 170.199 283.578 165.15 284.445 159.018C285.299 153.057 283.379 146.981 279.724 142.26C276.07 137.54 270.424 134.245 264.58 132.705C261.679 131.949 258.764 131.75 255.792 131.493C253.147 131.265 250.075 130.609 249.407 127.614C248.028 121.51 254.811 117.188 258.024 113.095C261.437 108.745 263.243 101.843 258.423 97.7354C253.602 93.628 245.397 95.2396 239.496 95.696C237.633 95.8386 235.756 96.0525 233.893 96.0953C232.471 96.1238 230.579 96.1381 229.556 94.9686C227.01 92.045 231.006 88.0517 232.912 86.1264C234.234 84.7858 233.182 82.7891 231.475 82.6465C223.796 82.0047 216.075 83.9443 209.576 88.0945L212.563 90.4049L215.705 80.3361C216.217 78.7103 214.639 77.5979 213.202 77.826C198.57 80.1079 184.392 85.1993 171.665 92.8008C167.769 95.1255 156.436 101.016 161.839 106.991C163.901 109.287 167.3 109.13 170.101 109.031C174.197 108.888 178.292 108.76 182.387 108.617C191.858 108.303 201.343 107.99 210.813 107.662L208.851 105.08C205.225 115.334 209.434 126.615 216.473 134.359C224.408 143.073 235.756 147.594 246.435 151.887C248.867 152.871 249.919 148.921 247.516 147.951L247.487 147.837Z" fill="#120D42"/>
<path d="M232.457 144.229C224.792 150.818 222.062 161.628 224.052 171.34C226.242 182.008 233.594 190.836 242.297 196.968C247.53 200.662 253.303 203.429 259.219 205.825C261.65 206.809 262.703 202.858 260.3 201.889C248.653 197.182 237.163 190.251 231.077 178.799C225.631 168.559 226.114 155.039 235.343 147.124C237.334 145.412 234.447 142.531 232.457 144.229Z" fill="#120D42"/>
<path d="M198.94 174.791C198.94 174.791 198.812 174.791 198.741 174.791C177.496 172.695 164.413 165.906 159.849 154.597C151.743 134.488 173.841 108.061 174.78 106.934C175.505 106.078 176.799 105.964 177.652 106.706C178.505 107.433 178.619 108.731 177.894 109.587C177.681 109.843 156.436 135.258 163.631 153.071C167.584 162.854 179.529 168.787 199.139 170.727C200.262 170.841 201.073 171.839 200.973 172.966C200.874 174.021 199.978 174.805 198.954 174.805L198.94 174.791Z" fill="#120D42"/>
<path d="M192.043 187.47C189.654 187.47 188.118 186.885 187.407 185.702C185.687 182.835 188.559 178.756 197.631 171.183C198.499 170.456 199.779 170.584 200.504 171.44C201.229 172.31 201.101 173.593 200.248 174.321C193.55 179.926 191.716 182.493 191.218 183.491C193.877 183.833 202.466 181.466 211.425 177.958C210.771 173.779 210.7 167.675 211.24 159.774C211.311 158.647 212.264 157.82 213.416 157.877C214.539 157.948 215.392 158.932 215.307 160.059C214.71 168.73 214.852 175.034 215.719 178.77C215.947 179.754 215.435 180.753 214.497 181.124C204.073 185.359 196.565 187.484 192.043 187.484V187.47Z" fill="#120D42"/>
<path d="M215.421 141.875C215.321 141.875 215.236 141.875 215.136 141.861C214.027 141.704 213.245 140.677 213.402 139.551C214.098 134.53 214.667 131.093 214.681 131.065C214.866 129.952 215.919 129.197 217.028 129.396C218.137 129.582 218.891 130.637 218.692 131.749C218.692 131.778 218.123 135.172 217.44 140.121C217.298 141.148 216.431 141.89 215.421 141.89V141.875Z" fill="#1D184E"/>
<path d="M213.97 161.956C213.174 161.956 212.378 161.842 211.61 161.614C210.529 161.3 209.904 160.173 210.216 159.089C210.529 158.005 211.667 157.378 212.733 157.692C214.17 158.105 215.776 157.763 217.241 156.693C218.848 155.538 220.085 153.698 220.711 151.516C221.337 149.334 221.265 147.124 220.526 145.284C219.843 143.615 218.677 142.46 217.241 142.032C216.175 141.733 215.023 141.833 213.885 142.346C212.861 142.817 211.653 142.346 211.183 141.333C210.714 140.307 211.183 139.094 212.193 138.624C214.212 137.697 216.345 137.526 218.35 138.11C221.009 138.88 223.128 140.877 224.28 143.744C225.375 146.439 225.489 149.605 224.607 152.657C223.725 155.709 221.948 158.319 219.602 160.016C217.824 161.3 215.89 161.956 213.956 161.956H213.97Z" fill="#120D42"/>
<path d="M212.833 152.486C212.733 152.486 212.634 152.486 212.534 152.458C211.653 152.286 211.07 151.445 211.226 150.561C211.311 150.104 212.108 146.111 214.852 144.485C216.103 143.744 217.568 143.615 219.09 144.129C219.943 144.414 220.398 145.341 220.114 146.197C219.829 147.052 218.905 147.509 218.052 147.224C217.255 146.953 216.786 147.138 216.516 147.295C215.264 148.022 214.582 150.375 214.425 151.146C214.283 151.93 213.601 152.472 212.833 152.472V152.486Z" fill="#120D42"/>
<path d="M210.188 257.224C202.296 257.224 184.35 237.842 176.927 229.428C174.552 231.852 169.888 235.945 165.11 236.388C162.707 236.601 160.602 235.931 158.782 234.405C158.043 233.778 157.843 232.722 158.313 231.867L171.225 208.121C171.523 207.579 172.035 207.208 172.632 207.094C173.23 206.98 173.855 207.151 174.325 207.536L192.882 223.267C194.702 218.518 198.371 210.075 201.186 204.213C211.78 182.179 216.146 181.394 217.781 181.095C218.862 180.895 221.521 180.881 222.972 184.832C227.863 198.081 222.062 241.023 215.208 253.245C213.899 255.584 212.506 256.867 210.956 257.167C210.7 257.21 210.444 257.238 210.174 257.238L210.188 257.224ZM176.955 224.322C177.538 224.322 178.107 224.579 178.491 225.021C190.72 239.126 206.306 253.887 210.188 253.145C215.108 251.248 224.792 201.489 219.161 186.243C218.805 185.288 218.507 185.102 218.507 185.102C218.521 185.102 215.008 185.231 205.509 204.655C200.461 214.981 196.224 225.677 195.825 227.089C195.712 227.745 195.285 228.301 194.674 228.586C193.948 228.929 193.109 228.815 192.498 228.287L173.599 212.271L162.821 232.109C163.418 232.323 164.058 232.394 164.726 232.323C168.878 231.952 173.827 226.961 175.377 225.078C175.761 224.622 176.33 224.336 176.927 224.336H176.955V224.322Z" fill="#120D42"/>
<path d="M198.925 233.792C198.428 233.792 197.944 233.621 197.546 233.25L187.592 224.122C186.767 223.367 186.71 222.069 187.464 221.242C188.232 220.414 189.512 220.357 190.337 221.113L200.291 230.241C201.115 230.997 201.172 232.294 200.419 233.122C200.02 233.564 199.466 233.792 198.911 233.792H198.925Z" fill="#1D184E"/>
<path d="M242.596 261.146C241.757 261.146 240.974 260.618 240.676 259.777L221.251 204.541C220.881 203.472 221.436 202.316 222.488 201.931C223.555 201.561 224.707 202.117 225.09 203.172L244.515 258.408C244.885 259.477 244.33 260.632 243.278 261.018C243.051 261.103 242.823 261.132 242.596 261.132V261.146Z" fill="#1D184E"/>
<path d="M161.768 218.518C161.384 218.518 161.015 218.418 160.673 218.19C159.721 217.577 159.45 216.321 160.062 215.366C178.804 186.172 193.593 171.868 194.219 171.269C195.029 170.499 196.323 170.513 197.091 171.326C197.873 172.139 197.845 173.437 197.034 174.207C196.892 174.349 181.947 188.825 163.489 217.562C163.105 218.161 162.451 218.504 161.768 218.504V218.518Z" fill="#120D42"/>
<path d="M162.579 224.251C162.963 223.31 149.326 192.262 149.326 192.262L97.3083 195.314L125.265 250.721L177.041 247.94L168.409 233.307" fill="white"/>
<path d="M125.279 252.774C124.512 252.774 123.815 252.346 123.459 251.648L95.5024 196.241C95.1896 195.628 95.218 194.9 95.5593 194.301C95.9006 193.702 96.5263 193.317 97.2089 193.274L149.226 190.222C150.094 190.165 150.861 190.665 151.203 191.435C165.181 223.281 164.883 224.008 164.47 225.021C164.044 226.062 162.849 226.561 161.811 226.133C161.043 225.82 160.574 225.092 160.545 224.308C159.934 221.912 152.824 205.311 148.046 194.387L100.536 197.182L126.488 248.624L173.585 246.086L166.66 234.348C166.091 233.378 166.404 232.123 167.371 231.553C168.338 230.968 169.589 231.296 170.158 232.266L178.79 246.898C179.145 247.512 179.174 248.268 178.832 248.909C178.491 249.551 177.851 249.95 177.14 249.979L125.365 252.76C125.365 252.76 125.294 252.76 125.251 252.76L125.279 252.774Z" fill="#120D42"/>
<path d="M111.927 240.096C108.329 240.096 104.689 236.259 100.536 228.116C96.3699 219.944 95.6305 215.209 98.1332 212.756C101.205 209.761 107.163 212.784 108.329 213.412C108.699 213.612 108.983 213.911 109.168 214.282L118.155 232.08C118.368 232.523 118.425 233.022 118.312 233.492C118.155 234.106 116.705 239.568 112.51 240.053C112.311 240.081 112.112 240.081 111.913 240.081L111.927 240.096ZM101.646 215.523C101.319 215.523 101.077 215.58 100.977 215.68C100.963 215.68 99.6263 217.377 104.163 226.262C109.154 236.045 111.77 236.045 112.055 236.017C112.851 235.931 113.704 234.476 114.159 233.207L105.841 216.735C104.248 215.965 102.584 215.537 101.646 215.537V215.523Z" fill="#120D42"/>
<path d="M191.446 158.191C190.578 158.191 189.853 157.492 189.825 156.622C189.796 155.723 190.493 154.967 191.389 154.925C200.091 154.611 204.23 146.796 204.4 146.453C204.813 145.655 205.794 145.341 206.59 145.754C207.386 146.168 207.713 147.152 207.301 147.951C207.102 148.35 202.168 157.806 191.517 158.191C191.503 158.191 191.474 158.191 191.46 158.191H191.446Z" fill="#120D42"/>
<path d="M187.564 132.805C188.349 132.805 188.986 131.879 188.986 130.737C188.986 129.595 188.349 128.669 187.564 128.669C186.778 128.669 186.142 129.595 186.142 130.737C186.142 131.879 186.778 132.805 187.564 132.805Z" fill="#120D42"/>
<path d="M167.826 132.805C168.611 132.805 169.248 131.879 169.248 130.737C169.248 129.595 168.611 128.669 167.826 128.669C167.041 128.669 166.404 129.595 166.404 130.737C166.404 131.879 167.041 132.805 167.826 132.805Z" fill="#120D42"/>
<path d="M174.709 146.282C174.609 146.282 174.51 146.282 174.41 146.254C170.414 145.512 167.84 143.287 167.84 140.592C167.84 137.226 171.85 134.688 177.155 134.688C179.487 134.688 181.691 135.201 183.383 136.142C184.165 136.584 184.449 137.568 184.023 138.367C183.582 139.166 182.587 139.437 181.805 139.009C180.61 138.338 178.918 137.968 177.155 137.968C173.457 137.968 171.097 139.536 171.097 140.606C171.097 141.448 172.561 142.603 175.007 143.059C175.889 143.23 176.472 144.072 176.316 144.97C176.173 145.755 175.491 146.311 174.723 146.311L174.709 146.282Z" fill="#120D42"/>
<path d="M279.992 141.119C276.01 136.228 270.009 133.119 263.923 131.807C261.008 131.179 258.036 131.222 255.107 130.765C252.689 130.38 250.4 129.325 250.016 126.644C249.148 120.654 255.434 116.689 258.647 112.61C260.61 110.115 262.074 107.12 262.103 103.882C262.131 100.802 260.596 97.9778 258.008 96.3234C255.633 94.8117 252.632 94.4694 249.874 94.4552C246.56 94.4552 243.233 94.8688 239.934 95.1112C238.242 95.2396 236.535 95.4107 234.843 95.482C233.634 95.5248 232.298 95.5533 231.174 95.0399C228.728 93.9132 229.453 90.7899 230.605 88.9644C231.416 87.6809 232.525 86.597 233.592 85.5131C234.914 84.1725 233.847 82.1758 232.155 82.0332C226.211 81.5055 220.168 82.5894 214.736 85.0567C215.29 83.274 215.845 81.5055 216.399 79.7228C216.911 78.097 215.333 76.9846 213.897 77.2128C199.634 79.4233 185.798 84.3436 173.327 91.6171C170.283 93.3998 167.084 95.2253 164.368 97.5072C161.723 99.732 159.86 103.668 162.69 106.549C164.965 108.874 168.677 108.489 171.606 108.389C175.716 108.246 179.839 108.118 183.949 107.975C192.211 107.704 200.487 107.419 208.749 107.148C207.142 114.364 209.133 122.037 212.987 128.27C217.523 135.586 224.576 140.777 232.113 144.671C225.145 151.345 222.798 161.827 224.803 171.14C227.022 181.466 234.047 189.994 242.436 196.07C241.199 197.082 239.962 198.095 238.725 199.093C237.872 199.792 238 201.261 238.725 201.988C239.564 202.83 240.744 202.687 241.612 201.988C243.062 200.805 244.513 199.621 245.963 198.437C250.371 201.175 255.092 203.386 259.913 205.326C260.937 205.739 262.146 204.884 262.416 203.899C262.729 202.73 262.018 201.803 260.994 201.389C256.998 199.778 253.03 197.91 249.305 195.699C252.647 192.961 256.002 190.222 259.344 187.498C264.819 183.02 270.521 178.728 275.712 173.936C280.12 169.871 284.158 164.837 285.083 158.718C286.035 152.386 283.959 146.04 279.963 141.119H279.992Z" fill="#120D42"/>
<path d="M139.798 95.3679H75.2529C73.5465 95.3679 71.897 94.6834 70.6883 93.4568C69.4796 92.2303 68.797 90.576 68.797 88.8361C68.797 87.0961 69.4796 85.4418 70.6883 84.2153C71.897 82.9888 73.5465 82.3042 75.2529 82.3042H139.798C141.505 82.3042 143.154 82.9888 144.363 84.2153C145.572 85.4418 146.254 87.0961 146.254 88.8361C146.254 90.576 145.572 92.2303 144.363 93.4568C143.154 94.6834 141.505 95.3679 139.798 95.3679Z" fill="#120D42"/>
<path d="M118.525 121.324H76.0919C74.3855 121.324 72.736 120.64 71.5273 119.413C70.3186 118.187 69.636 116.532 69.636 114.792C69.636 113.052 70.3186 111.398 71.5273 110.172C72.736 108.945 74.3855 108.26 76.0919 108.26H118.525C120.231 108.26 121.881 108.945 123.089 110.172C124.298 111.398 124.981 113.052 124.981 114.792C124.981 116.532 124.298 118.187 123.089 119.413C121.881 120.64 120.231 121.324 118.525 121.324Z" fill="#F869EA"/>
<path d="M170.912 69.2263H75.2675C73.5611 69.2263 71.9115 68.5418 70.7028 67.3152C69.4941 66.0887 68.8115 64.4344 68.8115 62.6945C68.8115 60.9545 69.4941 59.3002 70.7028 58.0737C71.9115 56.8472 73.5611 56.1626 75.2675 56.1626H170.926C172.633 56.1626 174.282 56.8472 175.491 58.0737C176.7 59.3002 177.382 60.9545 177.382 62.6945C177.382 64.4344 176.7 66.0887 175.491 67.3152C174.282 68.5418 172.633 69.2263 170.926 69.2263H170.912Z" fill="#120D42"/>
<path d="M248.724 21.3784C248.724 45.5235 213.032 65.062 211.51 65.8606C211.112 66.0746 210.657 66.1887 210.202 66.1887C209.747 66.1887 209.306 66.0746 208.894 65.8606C207.372 65.0477 171.68 45.5092 171.68 21.3784C171.68 15.7165 173.941 10.2685 177.937 6.26099C181.932 2.25345 187.35 0.000101545 193.01 -0.0141602C200.106 -0.0141602 206.334 3.05211 210.202 8.2291C214.084 3.05211 220.298 -0.0141602 227.394 -0.0141602C233.04 -0.0141602 238.472 2.25345 242.468 6.26099C246.463 10.2685 248.71 15.7022 248.724 21.3784Z" fill="#F869EA"/>
<path d="M67.2187 195.357C67.2187 194.858 67.2187 194.344 67.2187 193.845L72.4232 187.328C72.6934 186.985 72.8783 186.586 72.9778 186.158C73.0631 185.73 73.0489 185.288 72.9494 184.86C72.0962 181.637 70.8163 178.557 69.1526 175.676C68.9393 175.305 68.6264 174.977 68.2709 174.734C67.9012 174.492 67.4888 174.349 67.0622 174.292L58.7861 173.365C58.4448 172.995 58.0893 172.652 57.7338 172.31L56.7526 163.995C56.6957 163.568 56.5535 163.154 56.3118 162.783C56.0701 162.412 55.7572 162.113 55.3733 161.899C52.5008 160.23 49.415 158.947 46.2155 158.105C45.7889 157.991 45.3481 157.977 44.9215 158.077C44.4949 158.162 44.0967 158.362 43.7554 158.633L37.271 163.824H35.7637L29.2651 158.619C28.9238 158.348 28.5257 158.162 28.099 158.063C27.6724 157.977 27.2316 157.991 26.805 158.091C23.5913 158.947 20.5197 160.23 17.6472 161.899C17.2775 162.113 16.9505 162.427 16.7087 162.783C16.467 163.154 16.3248 163.568 16.2679 163.995L15.3436 172.31C14.9739 172.652 14.6326 173.009 14.2913 173.365L6.00096 174.321C5.57435 174.378 5.16197 174.521 4.79224 174.763C4.42252 175.005 4.1239 175.319 3.9106 175.704C2.24684 178.585 0.967029 181.68 0.11382 184.889C5.92945e-05 185.317 -0.0141608 185.759 0.0853801 186.187C0.170701 186.614 0.369783 187.014 0.639965 187.356L5.8161 193.859V195.371L0.625745 201.889C0.355563 202.231 0.170701 202.63 0.07116 203.058C-0.0141608 203.486 5.92945e-05 203.928 0.0996002 204.356C0.952808 207.579 2.23262 210.66 3.89638 213.541C4.10968 213.911 4.42252 214.239 4.77802 214.482C5.14775 214.724 5.56013 214.867 5.98674 214.924L14.2629 215.851C14.6041 216.222 14.9596 216.564 15.3151 216.906L16.2821 225.221C16.339 225.649 16.4812 226.062 16.7229 226.433C16.9647 226.804 17.2775 227.103 17.6615 227.317C20.5339 228.986 23.6197 230.27 26.8192 231.125C27.2458 231.239 27.6867 231.254 28.1133 231.154C28.5399 231.068 28.938 230.868 29.2793 230.598L35.7637 225.406C36.2614 225.406 36.7733 225.406 37.271 225.406L43.7696 230.626C44.1109 230.897 44.5091 231.082 44.9357 231.182C45.3623 231.282 45.8031 231.254 46.2297 231.154C49.4435 230.298 52.515 229.014 55.3875 227.346C55.7572 227.132 56.0843 226.818 56.326 226.462C56.5678 226.091 56.71 225.677 56.7668 225.249L57.6912 216.949C58.0609 216.607 58.4022 216.25 58.7434 215.894L67.0338 214.91C67.4604 214.853 67.8728 214.71 68.2425 214.468C68.6122 214.225 68.9108 213.911 69.1241 213.526C70.7879 210.645 72.0677 207.551 72.9209 204.342C73.0347 203.914 73.0489 203.472 72.9494 203.044C72.864 202.616 72.665 202.217 72.3948 201.874L67.2187 195.371V195.357ZM36.5032 208.606C33.7444 208.606 31.0426 207.779 28.7532 206.253C26.4637 204.713 24.672 202.531 23.6197 199.978C22.5674 197.425 22.283 194.601 22.8234 191.891C23.3637 189.182 24.6862 186.686 26.6486 184.718C28.5968 182.764 31.0853 181.423 33.8013 180.881C36.5032 180.339 39.3187 180.625 41.8641 181.68C44.4095 182.735 46.5994 184.532 48.121 186.828C49.6568 189.125 50.4673 191.834 50.4673 194.601C50.4673 198.309 49.0027 201.874 46.3861 204.499C43.7696 207.123 40.2146 208.592 36.5174 208.592L36.5032 208.606Z" fill="#120D42"/>
<path d="M41.1815 121.039C41.1815 120.739 41.1815 120.426 41.1815 120.126L44.3384 116.161C44.5091 115.948 44.6228 115.705 44.6797 115.448C44.7366 115.192 44.7224 114.921 44.6513 114.664C44.1393 112.71 43.3572 110.842 42.3476 109.088C42.2196 108.859 42.0348 108.66 41.8072 108.517C41.5797 108.375 41.338 108.275 41.0678 108.246L36.0481 107.69C35.8348 107.476 35.6215 107.262 35.4082 107.048L34.8109 102C34.7825 101.743 34.6829 101.486 34.5407 101.258C34.3985 101.03 34.1995 100.859 33.9719 100.716C32.2229 99.7034 30.36 98.9333 28.4119 98.4056C28.1559 98.3343 27.8857 98.3343 27.6298 98.3771C27.3738 98.4342 27.1321 98.5482 26.9188 98.7194L22.9798 101.871H22.0697L18.1165 98.7051C17.9032 98.534 17.6614 98.4199 17.4055 98.3628C17.1495 98.3058 16.8793 98.32 16.6234 98.3914C14.6752 98.9048 12.8124 99.6892 11.0633 100.702C10.8358 100.83 10.6367 101.016 10.4945 101.244C10.3523 101.472 10.2528 101.714 10.2243 101.985L9.66972 107.034C9.45642 107.248 9.24312 107.462 9.02982 107.676L3.99589 108.26C3.73993 108.289 3.48396 108.389 3.25644 108.531C3.02892 108.674 2.85828 108.874 2.71608 109.102C1.70645 110.856 0.93856 112.724 0.412415 114.678C0.341314 114.935 0.341314 115.206 0.398195 115.463C0.455075 115.719 0.568837 115.962 0.739478 116.176L3.88213 120.126V121.039L0.725258 125.004C0.554616 125.218 0.440855 125.46 0.383975 125.717C0.327094 125.973 0.341314 126.244 0.412415 126.501C0.92434 128.455 1.70645 130.323 2.71608 132.077C2.84406 132.306 3.02892 132.505 3.25644 132.648C3.48396 132.791 3.72571 132.89 3.99589 132.919L9.0156 133.475C9.2289 133.689 9.4422 133.903 9.6555 134.117L10.2385 139.166C10.267 139.422 10.3665 139.679 10.5087 139.907C10.6509 140.135 10.85 140.306 11.0775 140.449C12.8266 141.462 14.6894 142.232 16.6376 142.76C16.8936 142.831 17.1637 142.831 17.4197 142.774C17.6757 142.717 17.9174 142.603 18.1307 142.431L22.0697 139.28C22.3683 139.28 22.6812 139.28 22.9798 139.28L26.933 142.446C27.1463 142.617 27.388 142.731 27.644 142.788C27.8999 142.845 28.1701 142.831 28.4261 142.76C30.3742 142.246 32.2371 141.462 33.9862 140.449C34.2137 140.321 34.4128 140.135 34.555 139.907C34.6972 139.679 34.7967 139.437 34.8251 139.166L35.3797 134.131C35.593 133.917 35.8063 133.703 36.0196 133.489L41.0536 132.89C41.3095 132.862 41.5655 132.762 41.793 132.619C42.0205 132.477 42.1912 132.277 42.3334 132.049C43.343 130.295 44.1109 128.427 44.637 126.473C44.7081 126.216 44.7081 125.945 44.6513 125.688C44.5944 125.432 44.4806 125.189 44.31 124.975L41.1673 121.025L41.1815 121.039ZM22.5532 129.068C20.8752 129.068 19.2399 128.569 17.8463 127.642C16.4527 126.715 15.372 125.389 14.7321 123.834C14.0922 122.28 13.9215 120.568 14.2486 118.928C14.5757 117.274 15.3862 115.762 16.5665 114.578C17.7468 113.395 19.2541 112.582 20.9036 112.254C22.5532 111.926 24.2454 112.097 25.7954 112.739C27.3454 113.38 28.6678 114.464 29.5921 115.862C30.5164 117.26 31.0142 118.9 31.0142 120.583C31.0142 122.836 30.1183 124.989 28.5398 126.587C26.9472 128.184 24.7999 129.068 22.5532 129.068Z" fill="#120D42"/>
</g>
<defs>
<clipPath id="clip0_103_1010">
<rect width="285" height="263" fill="white"/>
</clipPath>
</defs>
</svg>
