<svg role="img" viewBox="0 0 150 40" xmlns="http://www.w3.org/2000/svg">
<title>Empower Accessibility</title>
<g fill="currentColor">
<path d="M40.4618 11.0303H33.3168C33.3626 11.7188 33.5733 12.24 33.9397 12.6039C34.3061 12.9678 34.7458 13.1448 35.2771 13.1448C36.0648 13.1448 36.6145 12.7908 36.9167 12.0728H40.2786C40.1045 12.8006 39.7931 13.4497 39.3442 14.0398C38.8954 14.62 38.3274 15.0823 37.6587 15.4068C36.9809 15.7412 36.2206 15.8986 35.387 15.8986C34.3794 15.8986 33.4817 15.6724 32.6939 15.2003C31.9061 14.7282 31.2924 14.0791 30.8435 13.2137C30.4038 12.358 30.1748 11.3549 30.1748 10.2042C30.1748 9.05355 30.3946 8.05041 30.8343 7.19478C31.274 6.33915 31.8878 5.68022 32.6756 5.20815C33.4633 4.73609 34.3702 4.50989 35.387 4.50989C36.4038 4.50989 37.274 4.73609 38.0435 5.18849C38.8221 5.64088 39.4267 6.28015 39.8663 7.1161C40.306 7.95206 40.5259 8.91587 40.5259 10.0272C40.5259 10.3419 40.5076 10.6763 40.4709 11.0205L40.4618 11.0303ZM37.2832 9.14207C37.2832 8.56181 37.0999 8.09958 36.7335 7.75536C36.3671 7.41114 35.9 7.24395 35.3503 7.24395C34.8007 7.24395 34.3794 7.41114 34.0129 7.73569C33.6465 8.07007 33.4267 8.53231 33.3351 9.14207H37.2832Z"/>
<path d="M58.3793 5.81786C59.1396 6.65382 59.5151 7.80448 59.5151 9.28954V15.751H56.3732V9.74193C56.3732 9.024 56.1991 8.47325 55.851 8.08969C55.5029 7.6963 55.0175 7.50944 54.4037 7.50944C53.79 7.50944 53.3045 7.70614 52.9564 8.08969C52.6083 8.48308 52.4343 9.03383 52.4343 9.74193V15.751H49.2923V9.74193C49.2923 9.024 49.1183 8.47325 48.7702 8.08969C48.4221 7.6963 47.9366 7.50944 47.3228 7.50944C46.7091 7.50944 46.2236 7.70614 45.8755 8.08969C45.5274 8.48308 45.3534 9.03383 45.3534 9.74193V15.751H42.1931V4.68686H45.3534V6.07356C45.674 5.61133 46.0954 5.24744 46.6084 4.97207C47.1213 4.69669 47.7076 4.56884 48.3671 4.56884C49.1457 4.56884 49.8328 4.74587 50.4465 5.09992C51.0602 5.45397 51.5366 5.96538 51.8755 6.62431C52.2327 6.01455 52.7182 5.52282 53.332 5.13926C53.9457 4.7557 54.6144 4.56884 55.3472 4.56884C56.6297 4.56884 57.6464 4.9819 58.4067 5.81786H58.3793Z"/>
<path d="M66.1562 5.00176C66.6967 4.68705 67.3287 4.5297 68.0615 4.5297C68.9134 4.5297 69.6829 4.76573 70.3699 5.22796C71.0569 5.6902 71.6066 6.34913 72.0005 7.21459C72.4035 8.07021 72.605 9.07336 72.605 10.2044C72.605 11.3354 72.4035 12.3385 72.0005 13.204C71.5974 14.0694 71.0569 14.7382 70.3699 15.2103C69.6829 15.6823 68.9134 15.9184 68.0615 15.9184C67.347 15.9184 66.715 15.761 66.1654 15.4463C65.6158 15.1316 65.1944 14.7185 64.8829 14.217V21.0324H61.7227V4.68705H64.8829V6.25078C65.1944 5.73937 65.6158 5.31648 66.1562 5.00176ZM68.7302 8.2079C68.2906 7.726 67.7593 7.48013 67.118 7.48013C66.4768 7.48013 65.9547 7.726 65.5242 8.21774C65.0845 8.70948 64.8646 9.37824 64.8646 10.224C64.8646 11.0698 65.0845 11.7386 65.5242 12.2303C65.9638 12.7221 66.4951 12.9679 67.118 12.9679C67.7409 12.9679 68.2814 12.7221 68.7211 12.2205C69.1608 11.7288 69.3898 11.0502 69.3898 10.2044C69.3898 9.35857 69.1699 8.69964 68.7302 8.2079Z"/>
<path d="M76.2325 15.2101C75.4264 14.7479 74.7943 14.089 74.3272 13.2235C73.86 12.358 73.631 11.3647 73.631 10.2141C73.631 9.0634 73.86 8.07992 74.3363 7.21446C74.8035 6.349 75.4447 5.68023 76.26 5.218C77.0752 4.75576 77.9821 4.51973 78.9897 4.51973C79.9973 4.51973 80.9134 4.75576 81.7195 5.218C82.5256 5.68023 83.176 6.349 83.6431 7.21446C84.1103 8.07992 84.3485 9.08307 84.3485 10.2141C84.3485 11.3451 84.1103 12.3482 83.634 13.2137C83.1576 14.0791 82.5164 14.7479 81.692 15.2101C80.8676 15.6724 79.9607 15.9084 78.9531 15.9084C77.9455 15.9084 77.0386 15.6822 76.2325 15.2101ZM80.492 12.2597C80.9134 11.7876 81.1332 11.0992 81.1332 10.2141C81.1332 9.32893 80.9225 8.65034 80.5195 8.16843C80.1073 7.69636 79.6035 7.45049 78.9989 7.45049C78.3943 7.45049 77.8722 7.68653 77.4691 8.1586C77.0661 8.63067 76.8554 9.30927 76.8554 10.2141C76.8554 11.1189 77.0569 11.7778 77.46 12.2597C77.863 12.7318 78.3577 12.9776 78.9622 12.9776C79.5668 12.9776 80.0798 12.7416 80.5012 12.2597H80.492Z"/>
<path d="M100.809 4.68691L98.0248 15.751H94.5347L92.9134 8.57165L91.237 15.751H87.7653L84.9623 4.68691H88.1226L89.579 12.5941L91.3195 4.68691H94.663L96.4126 12.5547L97.8507 4.68691H100.819H100.809Z"/>
<path d="M111.664 11.0303H104.519C104.565 11.7188 104.776 12.24 105.142 12.6039C105.509 12.9678 105.948 13.1448 106.48 13.1448C107.267 13.1448 107.817 12.7908 108.119 12.0728H111.481C111.307 12.8006 110.996 13.4497 110.547 14.0398C110.098 14.62 109.53 15.0823 108.861 15.4068C108.183 15.7412 107.423 15.8986 106.589 15.8986C105.582 15.8986 104.684 15.6724 103.896 15.2003C103.109 14.7282 102.495 14.0791 102.046 13.2137C101.606 12.358 101.377 11.3549 101.377 10.2042C101.377 9.05356 101.597 8.05041 102.037 7.19478C102.477 6.33916 103.09 5.68023 103.878 5.20816C104.666 4.73609 105.573 4.50989 106.589 4.50989C107.606 4.50989 108.477 4.73609 109.246 5.18849C110.025 5.64089 110.629 6.28015 111.069 7.1161C111.509 7.95206 111.728 8.91587 111.728 10.0272C111.728 10.3419 111.71 10.6763 111.673 11.0205L111.664 11.0303ZM108.495 9.14207C108.495 8.56182 108.312 8.09958 107.945 7.75536C107.579 7.41115 107.112 7.24396 106.562 7.24396C106.012 7.24396 105.591 7.41115 105.225 7.7357C104.858 8.07008 104.638 8.53231 104.547 9.14207H108.495Z"/>
<path d="M117.93 5.09009C118.48 4.73603 119.102 4.56884 119.78 4.56884V8.15854H118.91C118.122 8.15854 117.536 8.33556 117.133 8.69945C116.73 9.06333 116.547 9.7026 116.547 10.6074V15.7411H113.386V4.68686H116.547V6.52596C116.913 5.91621 117.38 5.44414 117.93 5.09009Z"/>
<path d="M30.7795 25.4383C31.1825 24.5827 31.723 23.9237 32.41 23.4517C33.097 22.9796 33.8665 22.7534 34.7184 22.7534C35.4421 22.7534 36.0833 22.9107 36.6329 23.2255C37.1825 23.5402 37.6039 23.9631 37.897 24.4745V22.9107H41.0573V33.9749H37.897V32.4111C37.5856 32.9225 37.1642 33.3454 36.6146 33.6602C36.065 33.9749 35.4329 34.1322 34.7001 34.1322C33.8665 34.1322 33.097 33.8962 32.41 33.4241C31.723 32.9521 31.1734 32.2833 30.7795 31.4178C30.3764 30.5524 30.1841 29.5492 30.1841 28.4182C30.1841 27.2872 30.3856 26.2841 30.7795 25.4284V25.4383ZM37.2375 26.4513C36.7978 25.9595 36.2665 25.7137 35.6436 25.7137C35.0207 25.7137 34.4802 25.9595 34.0497 26.4414C33.61 26.9233 33.3902 27.5921 33.3902 28.4379C33.3902 29.2837 33.61 29.9524 34.0497 30.454C34.4894 30.9556 35.0207 31.2015 35.6436 31.2015C36.2665 31.2015 36.8069 30.9556 37.2375 30.4639C37.668 29.9721 37.897 29.3034 37.897 28.4576C37.897 27.6118 37.6772 26.943 37.2375 26.4513Z"/>
<path d="M43.3657 25.4383C43.8054 24.5827 44.41 23.9237 45.1978 23.4517C45.9764 22.9894 46.8741 22.7534 47.8817 22.7534C49.1733 22.7534 50.2542 23.1173 51.1244 23.8451C51.9947 24.5728 52.5626 25.5956 52.8282 26.9135H49.4664C49.1825 26.0677 48.6329 25.6448 47.8268 25.6448C47.2497 25.6448 46.7825 25.8907 46.4436 26.3726C46.0955 26.8545 45.9306 27.5429 45.9306 28.4477C45.9306 29.3525 46.1046 30.041 46.4436 30.5229C46.7916 31.0048 47.2497 31.2506 47.8268 31.2506C48.642 31.2506 49.1825 30.8277 49.4664 29.982H52.8282C52.5534 31.2801 51.9855 32.2931 51.1153 33.0307C50.2451 33.7683 49.1641 34.1421 47.8817 34.1421C46.8741 34.1421 45.9764 33.9159 45.1978 33.4438C44.4191 32.9816 43.8054 32.3226 43.3657 31.4572C42.926 30.5917 42.7062 29.5984 42.7062 28.4477C42.7062 27.2971 42.926 26.2939 43.3657 25.4383Z"/>
<path d="M54.532 25.4383C54.9717 24.5827 55.5762 23.9237 56.364 23.4517C57.1426 22.9894 58.0403 22.7534 59.048 22.7534C60.3396 22.7534 61.4205 23.1173 62.2907 23.8451C63.1609 24.5728 63.7289 25.5956 63.9945 26.9135H60.6327C60.3487 26.0677 59.7991 25.6448 58.993 25.6448C58.4159 25.6448 57.9487 25.8907 57.6098 26.3726C57.2617 26.8545 57.0968 27.5429 57.0968 28.4477C57.0968 29.3525 57.2709 30.041 57.6098 30.5229C57.9579 31.0048 58.4159 31.2506 58.993 31.2506C59.8083 31.2506 60.3487 30.8277 60.6327 29.982H63.9945C63.7197 31.2801 63.1518 32.2931 62.2815 33.0307C61.4113 33.7683 60.3304 34.1421 59.048 34.1421C58.0403 34.1421 57.1426 33.9159 56.364 33.4438C55.5854 32.9816 54.9717 32.3226 54.532 31.4572C54.0923 30.5917 53.8724 29.5984 53.8724 28.4477C53.8724 27.2971 54.0923 26.2939 54.532 25.4383Z"/>
<path d="M75.3349 29.264H68.1899C68.2357 29.9524 68.4464 30.4737 68.8128 30.8376C69.1792 31.2015 69.6189 31.3785 70.1502 31.3785C70.938 31.3785 71.4876 31.0244 71.7899 30.3065H75.1517C74.9777 31.0343 74.6662 31.6834 74.2174 32.2735C73.7685 32.8537 73.2006 33.3159 72.5319 33.6405C71.854 33.9749 71.0937 34.1322 70.2602 34.1322C69.2525 34.1322 68.3548 33.906 67.567 33.434C66.7793 32.9619 66.1655 32.3128 65.7167 31.4473C65.277 30.5917 65.048 29.5886 65.048 28.4379C65.048 27.2872 65.2678 26.2841 65.7075 25.4285C66.1472 24.5728 66.7609 23.9139 67.5487 23.4418C68.3365 22.9698 69.2434 22.7436 70.2602 22.7436C71.2769 22.7436 72.1472 22.9698 72.9166 23.4222C73.6952 23.8746 74.2998 24.5138 74.7395 25.3498C75.1792 26.1857 75.3991 27.1495 75.3991 28.2609C75.3991 28.5756 75.3807 28.91 75.3441 29.2542L75.3349 29.264ZM72.1563 27.3757C72.1563 26.7955 71.9731 26.3332 71.6067 25.989C71.2403 25.6448 70.7731 25.4776 70.2235 25.4776C69.6739 25.4776 69.2525 25.6448 68.8861 25.9694C68.5197 26.3037 68.2999 26.766 68.2083 27.3757H72.1563Z"/>
<path d="M78.8432 33.6405C78.1379 33.3061 77.5882 32.8537 77.1852 32.2833C76.7821 31.7129 76.5531 31.0638 76.4982 30.3458H79.6218C79.6585 30.7294 79.8233 31.0441 80.1165 31.2801C80.4096 31.5162 80.776 31.6342 81.2065 31.6342C81.6004 31.6342 81.9027 31.5555 82.1226 31.3883C82.3332 31.2211 82.4432 31.0048 82.4432 30.7491C82.4432 30.4344 82.2874 30.1983 81.9852 30.041C81.6737 29.8934 81.1791 29.7164 80.492 29.5394C79.7501 29.3525 79.1363 29.1558 78.6417 28.9591C78.147 28.7526 77.7256 28.4281 77.3684 27.9855C77.0111 27.5429 76.8371 26.943 76.8371 26.1956C76.8371 25.5563 77.002 24.9859 77.3226 24.4646C77.6524 23.9434 78.1287 23.5303 78.7607 23.2255C79.3928 22.9206 80.1531 22.7731 81.0233 22.7731C82.3149 22.7731 83.3317 23.1173 84.0828 23.8057C84.8248 24.4941 85.2554 25.4088 85.3653 26.5398H82.4523C82.4065 26.1562 82.2416 25.8513 81.9852 25.6251C81.7195 25.3989 81.3714 25.2908 80.9409 25.2908C80.5745 25.2908 80.2905 25.3694 80.089 25.517C79.8875 25.6645 79.7959 25.8808 79.7959 26.1366C79.7959 26.4513 79.9516 26.6873 80.263 26.8545C80.5745 27.0217 81.0691 27.1692 81.7287 27.3266C82.489 27.5331 83.1119 27.7495 83.5974 27.9462C84.0737 28.1527 84.4951 28.4772 84.8615 28.9395C85.2279 29.3919 85.4111 30.0016 85.4202 30.7687C85.4202 31.4178 85.2462 31.9981 84.9164 32.4997C84.5775 33.0111 84.092 33.4045 83.46 33.6995C82.8279 33.9945 82.0859 34.1322 81.2523 34.1322C80.3546 34.1322 79.5577 33.965 78.8524 33.6405H78.8432Z"/>
<path d="M89.1485 33.6405C88.4432 33.3061 87.8935 32.8537 87.4905 32.2833C87.0874 31.7129 86.8584 31.0638 86.8035 30.3458H89.9271C89.9638 30.7294 90.1286 31.0441 90.4218 31.2801C90.7149 31.5162 91.0813 31.6342 91.5118 31.6342C91.9057 31.6342 92.208 31.5555 92.4279 31.3883C92.6385 31.2211 92.7485 31.0048 92.7485 30.7491C92.7485 30.4344 92.5927 30.1983 92.2905 30.041C91.979 29.8934 91.4844 29.7164 90.7973 29.5394C90.0554 29.3525 89.4416 29.1558 88.947 28.9591C88.4523 28.7526 88.0309 28.4281 87.6737 27.9855C87.3164 27.5429 87.1424 26.943 87.1424 26.1956C87.1424 25.5563 87.3073 24.9859 87.6279 24.4646C87.9577 23.9434 88.434 23.5303 89.066 23.2255C89.6981 22.9206 90.4584 22.7731 91.3286 22.7731C92.6202 22.7731 93.637 23.1173 94.3881 23.8057C95.1301 24.4941 95.5607 25.4088 95.6706 26.5398H92.7576C92.7118 26.1562 92.5469 25.8513 92.2905 25.6251C92.0248 25.3989 91.6767 25.2908 91.2462 25.2908C90.8798 25.2908 90.5958 25.3694 90.3943 25.517C90.1928 25.6645 90.1012 25.8808 90.1012 26.1366C90.1012 26.4513 90.2569 26.6873 90.5683 26.8545C90.8798 27.0217 91.3744 27.1692 92.034 27.3266C92.7943 27.5331 93.4172 27.7495 93.9027 27.9462C94.379 28.1527 94.8004 28.4772 95.1668 28.9395C95.5332 29.3919 95.7164 30.0016 95.7255 30.7687C95.7255 31.4178 95.5515 31.9981 95.2217 32.4997C94.8828 33.0111 94.3973 33.4045 93.7652 33.6995C93.1332 33.9945 92.3912 34.1322 91.5576 34.1322C90.6599 34.1322 89.863 33.965 89.1576 33.6405H89.1485Z"/>
<path d="M97.8875 21.2487C97.5394 20.8946 97.3654 20.4619 97.3654 19.9505C97.3654 19.4391 97.5394 18.9867 97.8875 18.6326C98.2356 18.2786 98.6936 18.1114 99.2432 18.1114C99.7928 18.1114 100.233 18.2884 100.581 18.6326C100.929 18.9867 101.103 19.4194 101.103 19.9505C101.103 20.4816 100.929 20.8946 100.581 21.2487C100.233 21.6027 99.7837 21.7699 99.2432 21.7699C98.7028 21.7699 98.2356 21.5929 97.8875 21.2487ZM100.81 22.9206V33.9847H97.6493V22.9206H100.81Z"/>
<path d="M107.533 23.2353C108.083 22.9206 108.724 22.7632 109.438 22.7632C110.29 22.7632 111.06 22.9993 111.747 23.4615C112.434 23.9237 112.984 24.5827 113.377 25.4481C113.78 26.3037 113.982 27.3069 113.982 28.4379C113.982 29.5689 113.78 30.572 113.377 31.4375C112.974 32.303 112.434 32.9717 111.747 33.4438C111.06 33.9159 110.29 34.1519 109.438 34.1519C108.715 34.1519 108.083 33.9945 107.533 33.6897C106.993 33.3749 106.562 32.9619 106.26 32.4505V33.9945H103.1V19.3309H106.26V24.504C106.553 23.9926 106.984 23.5697 107.533 23.255V23.2353ZM110.107 26.4414C109.668 25.9595 109.136 25.7137 108.495 25.7137C107.854 25.7137 107.332 25.9595 106.901 26.4513C106.461 26.943 106.242 27.6118 106.242 28.4576C106.242 29.3034 106.461 29.9721 106.901 30.4639C107.341 30.9556 107.872 31.2015 108.495 31.2015C109.118 31.2015 109.658 30.9556 110.098 30.454C110.538 29.9623 110.767 29.2837 110.767 28.4379C110.767 27.5921 110.547 26.9332 110.107 26.4414Z"/>
<path d="M115.869 21.2487C115.521 20.8946 115.347 20.4619 115.347 19.9505C115.347 19.4391 115.521 18.9867 115.869 18.6326C116.217 18.2786 116.675 18.1114 117.225 18.1114C117.774 18.1114 118.214 18.2884 118.562 18.6326C118.91 18.9867 119.084 19.4194 119.084 19.9505C119.084 20.4816 118.91 20.8946 118.562 21.2487C118.214 21.6027 117.765 21.7699 117.225 21.7699C116.684 21.7699 116.217 21.5929 115.869 21.2487ZM118.791 22.9206V33.9847H115.631V22.9206H118.791Z"/>
<path d="M124.241 19.3112V33.9749H121.081V19.3112H124.241Z"/>
<path d="M126.761 21.2487C126.412 20.8946 126.238 20.4619 126.238 19.9505C126.238 19.4391 126.412 18.9867 126.761 18.6326C127.109 18.2786 127.567 18.1114 128.116 18.1114C128.666 18.1114 129.106 18.2884 129.454 18.6326C129.802 18.9867 129.976 19.4194 129.976 19.9505C129.976 20.4816 129.802 20.8946 129.454 21.2487C129.106 21.6027 128.657 21.7699 128.116 21.7699C127.576 21.7699 127.109 21.5929 126.761 21.2487ZM129.692 22.9206V33.9847H126.532V22.9206H129.692Z"/>
<path d="M137.716 31.1031V33.9749H136.113C134.968 33.9749 134.079 33.67 133.438 33.0701C132.797 32.4701 132.476 31.4867 132.476 30.1295V25.7333H131.221V22.9206H132.476V20.2259H135.637V22.9206H137.707V25.7333H135.637V30.1688C135.637 30.5032 135.71 30.7392 135.857 30.8867C136.003 31.0343 136.25 31.1031 136.598 31.1031H137.725H137.716Z"/>
<path d="M150 22.9206L143.542 39.2365H140.144L142.507 33.611L138.312 22.9304H141.838L144.22 29.8443L146.583 22.9304H150V22.9206Z"/>
</g>
<path d="M16.0928 0.196182C16.3063 0.328738 16.4852 0.514316 16.6044 0.747614C16.7285 0.97561 16.7881 1.23542 16.7881 1.49523V12.1474C16.7881 12.4125 16.7285 12.667 16.6044 12.895C16.4802 13.123 16.3063 13.3139 16.0928 13.4464C15.8891 13.5737 15.6557 13.6426 15.4173 13.6426C15.1789 13.6426 14.9454 13.5737 14.7418 13.4464L6.06959 8.12301C5.85602 7.99046 5.68218 7.79958 5.558 7.57158C5.43383 7.34358 5.36926 7.08377 5.36926 6.82397C5.36926 6.55885 5.43383 6.30435 5.558 6.07635C5.68218 5.84836 5.85602 5.65748 6.06959 5.52492L14.7368 0.196182C14.9454 0.0689289 15.1789 0 15.4123 0C15.6507 0 15.8842 0.0689289 16.0878 0.196182H16.0928Z" fill="currentColor"/>
<path d="M22.4603 5.74761C22.8874 6.01272 23.2451 6.39448 23.4884 6.85048C23.7318 7.31177 23.861 7.83139 23.856 8.35631V29.7614C23.856 30.2916 23.7318 30.8112 23.4884 31.2672C23.2451 31.7285 22.8874 32.105 22.4603 32.3701C22.048 32.6299 21.5762 32.7625 21.0994 32.7625C20.6225 32.7625 20.1507 32.6246 19.7384 32.3701L2.33446 21.6755C1.90731 21.4104 1.55466 21.0286 1.30632 20.5673C1.06294 20.1113 0.928833 19.5917 0.928833 19.0615C0.928833 18.5313 1.05797 18.017 1.30632 17.5557C1.54969 17.0997 1.90731 16.7179 2.33446 16.4475L19.7434 5.74761C20.1557 5.49311 20.6275 5.35525 21.1043 5.35525C21.5812 5.35525 22.053 5.49311 22.4653 5.74761H22.4603Z" fill="#0771EA"/>
<path d="M15.9338 20.0053C16.2517 20.2015 16.5149 20.4825 16.6937 20.8218C16.8775 21.1612 16.9719 21.5482 16.9669 21.9353V37.7784C16.9669 38.1707 16.8775 38.5525 16.6937 38.8918C16.5099 39.2312 16.2467 39.5122 15.9338 39.7084C15.6308 39.8993 15.2831 40 14.9255 40C14.5679 40 14.2252 39.8993 13.9172 39.7084L1.03808 31.7922C0.720199 31.596 0.461921 31.3096 0.278146 30.9703C0.0943709 30.6363 0 30.2492 0 29.8568C0 29.4645 0.0943709 29.0827 0.278146 28.7434C0.461921 28.404 0.720199 28.123 1.03808 27.9215L13.9222 20C14.2301 19.8091 14.5728 19.7084 14.9305 19.7084C15.2831 19.7084 15.6308 19.8091 15.9387 20L15.9338 20.0053Z" fill="#F869EA"/>
</svg>
