<svg viewBox="0 0 31 19" fill="none" xmlns="http://www.w3.org/2000/svg">
<g clip-path="url(#clip0_101_1971)">
<path d="M26.3261 0H7.23116C5.9098 0 4.83862 1.03073 4.83862 2.30219V14.3679C4.83862 15.6393 5.9098 16.6701 7.23116 16.6701H26.3261C27.6475 16.6701 28.7187 15.6393 28.7187 14.3679V2.30219C28.7187 1.03073 27.6475 0 26.3261 0Z" fill="#120D42"/>
<path d="M29.8058 13.8131H3.75561C3.09607 13.8131 2.5614 14.3276 2.5614 14.9622V16.7731C2.5614 17.4077 3.09607 17.9222 3.75561 17.9222H29.8058C30.4654 17.9222 31 17.4077 31 16.7731V14.9622C31 14.3276 30.4654 13.8131 29.8058 13.8131Z" fill="#120D42"/>
<path d="M14.5817 8.97888H9.13363C8.68559 8.97888 8.32239 9.32837 8.32239 9.75949V9.83477C8.32239 10.2659 8.68559 10.6154 9.13363 10.6154H14.5817C15.0297 10.6154 15.3929 10.2659 15.3929 9.83477V9.75949C15.3929 9.32837 15.0297 8.97888 14.5817 8.97888Z" fill="#F869EA"/>
<path d="M14.5817 2.61121H9.13363C8.68559 2.61121 8.32239 2.96069 8.32239 3.39181V7.08086C8.32239 7.51198 8.68559 7.86147 9.13363 7.86147H14.5817C15.0297 7.86147 15.3929 7.51198 15.3929 7.08086V3.39181C15.3929 2.96069 15.0297 2.61121 14.5817 2.61121Z" fill="#F869EA"/>
<path d="M0.506511 4.46575L2.81669 4.16856C2.96905 4.14875 3.12553 4.18838 3.24907 4.27951C3.37261 4.37065 3.45085 4.50141 3.47144 4.65198L3.78029 6.87493C3.80088 7.02154 3.7597 7.17211 3.66499 7.29098C3.57027 7.40986 3.43438 7.48514 3.2779 7.50496C3.12142 7.52477 2.96905 7.48514 2.84551 7.39401C2.72197 7.30287 2.64373 7.17211 2.62314 7.02154L2.4996 6.14187L2.17428 6.55C1.5813 7.29098 1.32187 8.23009 1.44541 9.1573V9.17711C1.57306 10.0964 2.07134 10.9325 2.83316 11.4991C2.9567 11.5903 3.03494 11.725 3.05141 11.8716C3.072 12.0182 3.0267 12.1688 2.93199 12.2837C2.83728 12.4026 2.69727 12.4778 2.5449 12.4937C2.39254 12.5135 2.23605 12.4699 2.11663 12.3788C1.11597 11.6299 0.461214 10.5283 0.296495 9.31976V9.29599C0.127659 8.07555 0.469449 6.83926 1.25186 5.8645L1.57718 5.45636L0.662994 5.57524C0.510629 5.59505 0.354147 5.55543 0.230608 5.46429C0.107069 5.37315 0.0288278 5.24239 0.00823799 5.09182C-0.0123518 4.94124 0.0288278 4.79463 0.123541 4.67576C0.218254 4.55689 0.354147 4.4816 0.510629 4.46179L0.506511 4.46575Z" fill="#120D42"/>
<path d="M23.1635 18.996C27.0889 18.996 30.2711 15.934 30.2711 12.1568C30.2711 8.37964 27.0889 5.31763 23.1635 5.31763C19.2381 5.31763 16.0559 8.37964 16.0559 12.1568C16.0559 15.934 19.2381 18.996 23.1635 18.996Z" fill="#42427C"/>
<path d="M27.2156 12.2559C27.2156 12.1925 27.2156 12.1291 27.2156 12.0657L27.9033 11.2415C27.9404 11.1979 27.9651 11.1464 27.9775 11.0949C27.9898 11.0394 27.9857 10.984 27.9733 10.9324C27.8622 10.5243 27.6933 10.136 27.4709 9.77144C27.4421 9.72389 27.4009 9.68427 27.3556 9.65257C27.3062 9.62087 27.2527 9.60502 27.195 9.59709L26.1038 9.47822C26.0585 9.43067 26.0132 9.38708 25.9638 9.3435L25.8361 8.28948C25.8279 8.23401 25.8114 8.1825 25.7785 8.13495C25.7455 8.0874 25.7043 8.05174 25.6549 8.024C25.2761 7.81399 24.8684 7.65153 24.4484 7.54454C24.3907 7.52869 24.3331 7.52869 24.2795 7.54058C24.2219 7.55247 24.1683 7.57624 24.1272 7.6119L23.2706 8.26967H23.073L22.2164 7.6119C22.1711 7.57624 22.1176 7.55247 22.0641 7.54058C22.0064 7.52869 21.9488 7.53265 21.8952 7.54454C21.4711 7.65153 21.0675 7.81399 20.6887 8.02796C20.6393 8.0557 20.5981 8.09532 20.5651 8.13891C20.5322 8.18646 20.5157 8.23797 20.5075 8.29345L20.3839 9.34746C20.3345 9.39105 20.2892 9.43463 20.2439 9.48218L19.1486 9.60502C19.0909 9.61294 19.0374 9.62879 18.988 9.66049C18.9385 9.69219 18.9015 9.73182 18.8726 9.77937C18.6544 10.1439 18.4856 10.5362 18.3744 10.9404C18.3579 10.9958 18.3579 11.0513 18.3703 11.1028C18.3826 11.1583 18.4073 11.2098 18.4444 11.2494L19.128 12.0736V12.2638L18.4444 13.088C18.4073 13.1316 18.3826 13.1831 18.3703 13.2346C18.3579 13.2901 18.362 13.3456 18.3744 13.3971C18.4856 13.8052 18.6544 14.1936 18.8768 14.5581C18.9056 14.6056 18.9468 14.6453 18.9921 14.677C19.0415 14.7087 19.095 14.7245 19.1527 14.7324L20.2439 14.8513C20.2892 14.8989 20.3345 14.9425 20.3839 14.986L20.5116 16.0401C20.5198 16.0955 20.5363 16.147 20.5692 16.1946C20.6022 16.2421 20.6434 16.2778 20.6928 16.3055C21.0716 16.5156 21.4793 16.678 21.8993 16.785C21.957 16.8008 22.0147 16.8008 22.0682 16.789C22.1258 16.7771 22.1794 16.7533 22.2205 16.7176L23.0771 16.0599C23.143 16.0599 23.2089 16.0599 23.2747 16.0599L24.1313 16.7216C24.1766 16.7573 24.2301 16.781 24.2836 16.7929C24.3372 16.8048 24.3989 16.8008 24.4525 16.789C24.8766 16.682 25.2802 16.5195 25.659 16.3055C25.7085 16.2778 25.7496 16.2382 25.7826 16.1946C25.8155 16.147 25.832 16.0955 25.8402 16.0401L25.9638 14.99C26.0132 14.9464 26.0585 14.9028 26.1038 14.8553L27.1992 14.7324C27.2568 14.7245 27.3103 14.7087 27.3598 14.677C27.4092 14.6453 27.4462 14.6056 27.4751 14.5581C27.6933 14.1936 27.8622 13.8013 27.9733 13.3971C27.9898 13.3416 27.9898 13.2861 27.9775 13.2346C27.9651 13.1792 27.9404 13.1276 27.9033 13.088L27.2198 12.2638L27.2156 12.2559ZM23.1677 13.932C22.8053 13.932 22.447 13.829 22.1464 13.6348C21.8417 13.4407 21.607 13.1633 21.467 12.8384C21.327 12.5135 21.2899 12.1568 21.364 11.8161C21.434 11.4713 21.6111 11.1583 21.8664 10.9087C22.1258 10.659 22.4512 10.4926 22.8094 10.4252C23.1677 10.3579 23.5383 10.3935 23.8719 10.5243C24.2095 10.659 24.4978 10.8849 24.6996 11.1781C24.9013 11.4713 25.0084 11.8121 25.0084 12.1608C25.0084 12.6323 24.8149 13.0801 24.469 13.4129C24.123 13.7458 23.6536 13.932 23.1677 13.932Z" fill="white"/>
</g>
<defs>
<clipPath id="clip0_101_1971">
<rect width="31" height="19" fill="white"/>
</clipPath>
</defs>
</svg>
