<svg viewBox="0 0 507 480" fill="none" xmlns="http://www.w3.org/2000/svg">
<rect width="507" height="480" fill="white"/>
<g clip-path="url(#clip0_327_18)">
<path d="M434.339 90.9824H78.6608C64.4106 90.9824 52.8586 102.547 52.8586 116.813V360.939C52.8586 375.206 64.4106 386.77 78.6608 386.77H434.339C448.589 386.77 460.141 375.206 460.141 360.939V116.813C460.141 102.547 448.589 90.9824 434.339 90.9824Z" fill="#211C55"/>
<path d="M486.121 336.087H26.8789C19.7661 336.087 14 341.859 14 348.98V396.062C14 403.183 19.7661 408.956 26.8789 408.956H486.121C493.234 408.956 499 403.183 499 396.062V348.98C499 341.859 493.234 336.087 486.121 336.087Z" fill="#424280"/>
<path d="M224.103 238.899H120.983C116.151 238.899 112.234 242.82 112.234 247.657V270.643C112.234 275.48 116.151 279.401 120.983 279.401H224.103C228.935 279.401 232.852 275.48 232.852 270.643V247.657C232.852 242.82 228.935 238.899 224.103 238.899Z" fill="#DA3A95"/>
<path d="M426.701 369.209L416.975 378.946C416.131 379.79 415.11 380.502 413.999 380.946C412.889 381.391 411.69 381.658 410.491 381.658C409.292 381.658 408.093 381.435 406.983 380.946C405.872 380.502 404.851 379.79 404.007 378.946L360.663 335.553L345.919 374.055L345.83 374.322C344.898 376.5 343.343 378.368 341.345 379.701C339.347 380.991 337.037 381.702 334.639 381.702H334.062C331.575 381.613 329.177 380.724 327.223 379.212C325.269 377.701 323.803 375.611 323.048 373.255L282.99 250.414C282.28 248.28 282.191 245.968 282.724 243.745C283.257 241.566 284.367 239.521 285.966 237.921C287.565 236.32 289.563 235.209 291.784 234.675C293.96 234.141 296.269 234.23 298.445 234.942L421.149 275.044C423.503 275.844 425.546 277.312 427.056 279.268C428.566 281.224 429.41 283.625 429.543 286.114C429.676 288.604 429.01 291.049 427.722 293.139C426.434 295.229 424.525 296.918 422.26 297.896L421.993 297.985L383.534 312.79L426.878 356.182C428.61 357.916 429.587 360.273 429.587 362.673C429.587 365.074 428.61 367.475 426.878 369.165L426.701 369.209Z" fill="#DA3A95"/>
<path d="M264.249 214.09C320.269 214.09 365.682 168.627 365.682 112.545C365.682 56.4633 320.269 11 264.249 11C208.23 11 162.817 56.4633 162.817 112.545C162.817 168.627 208.23 214.09 264.249 214.09Z" fill="#424280"/>
<path d="M324.753 113.859C324.779 112.87 324.779 111.88 324.753 110.865L335.049 97.9983C335.581 97.3131 335.962 96.5264 336.139 95.689C336.317 94.8515 336.291 93.9633 336.063 93.1258C334.364 86.7814 331.854 80.6907 328.557 75.0061C328.126 74.2701 327.517 73.6357 326.807 73.1535C326.097 72.6713 325.26 72.3922 324.424 72.2906L308.067 70.4635C307.383 69.7529 306.698 69.0677 305.988 68.3825L304.061 51.9631C303.959 51.1002 303.655 50.2881 303.198 49.5775C302.717 48.867 302.083 48.2579 301.347 47.8265C295.667 44.5274 289.581 42.015 283.241 40.34C282.404 40.1116 281.542 40.0863 280.68 40.2639C279.843 40.4416 279.032 40.8222 278.372 41.3552L265.541 51.6078H262.548L249.692 41.3298C249.007 40.7968 248.221 40.4162 247.384 40.2385C246.547 40.0609 245.66 40.0863 244.823 40.3147C238.483 42.015 232.397 44.5274 226.717 47.8265C225.981 48.2579 225.347 48.867 224.866 49.5775C224.384 50.2881 224.105 51.1256 224.003 51.9631L222.177 68.3571C221.467 69.0423 220.783 69.7275 220.098 70.4381L203.691 72.316C202.829 72.4175 202.017 72.7221 201.307 73.1789C200.597 73.6611 199.989 74.2955 199.558 75.0314C196.261 80.7161 193.75 86.8067 192.051 93.1512C191.823 93.9886 191.798 94.8515 191.975 95.7143C192.153 96.5518 192.533 97.3639 193.066 98.0237L203.311 110.865V113.859L193.04 126.726C192.508 127.411 192.127 128.198 191.95 129.035C191.772 129.873 191.798 130.761 192.026 131.598C193.725 137.943 196.236 144.034 199.532 149.718C199.963 150.454 200.572 151.089 201.282 151.571C201.992 152.053 202.829 152.332 203.666 152.434L220.022 154.261C220.707 154.971 221.391 155.657 222.101 156.342L224.003 172.761C224.105 173.624 224.409 174.436 224.866 175.147C225.347 175.857 225.981 176.466 226.717 176.898C232.397 180.197 238.483 182.709 244.823 184.41C245.66 184.638 246.522 184.663 247.384 184.486C248.221 184.308 249.032 183.927 249.692 183.395L262.523 173.142C263.512 173.167 264.501 173.167 265.515 173.142L278.372 183.445C279.057 183.978 279.843 184.359 280.68 184.537C281.517 184.714 282.404 184.689 283.241 184.46C289.581 182.76 295.667 180.248 301.347 176.949C302.083 176.517 302.717 175.908 303.198 175.198C303.68 174.487 303.959 173.649 304.061 172.812L305.886 156.443C306.596 155.758 307.281 155.073 307.966 154.362L324.373 152.434C325.235 152.332 326.046 152.028 326.757 151.571C327.467 151.089 328.075 150.454 328.506 149.718C331.803 144.034 334.313 137.943 336.012 131.598C336.241 130.761 336.266 129.898 336.088 129.035C335.911 128.198 335.531 127.386 334.998 126.726L324.753 113.885V113.859ZM264.045 139.973C258.592 139.973 253.242 138.349 248.728 135.329C244.189 132.284 240.664 127.995 238.559 122.945C236.48 117.895 235.922 112.337 236.987 106.982C238.052 101.627 240.689 96.7041 244.544 92.8466C248.398 88.9892 253.318 86.3499 258.669 85.2841C264.019 84.2182 269.573 84.7765 274.619 86.8575C279.666 88.9385 283.976 92.4914 286.994 97.034C290.037 101.577 291.635 106.906 291.635 112.362C291.635 119.696 288.719 126.701 283.545 131.878C278.372 137.055 271.348 139.973 264.045 139.973Z" fill="white"/>
</g>
<defs>
<clipPath id="clip0_327_18">
<rect width="485" height="398" fill="white" transform="translate(14 11)"/>
</clipPath>
</defs>
</svg>
