<svg viewBox="0 0 25 18" fill="none" xmlns="http://www.w3.org/2000/svg">
<g clip-path="url(#clip0_101_1953)">
<path d="M23.0825 0H1.91749C0.85849 0 0 0.830031 0 1.85393V14.9016C0 15.9255 0.85849 16.7555 1.91749 16.7555H23.0825C24.1415 16.7555 25 15.9255 25 14.9016V1.85393C25 0.830031 24.1415 0 23.0825 0Z" fill="#120D42"/>
<path d="M11.1485 12.5403H13.8515C14.6997 12.5403 15.3862 13.204 15.3862 14.0241V17.3618C15.3862 17.7128 15.0891 18 14.7261 18H10.274C9.91092 18 9.61389 17.7128 9.61389 17.3618V14.0241C9.61389 13.204 10.3004 12.5403 11.1485 12.5403Z" fill="#F869EA"/>
<path d="M12.4984 12.0712C13.6012 12.0712 14.4951 11.2069 14.4951 10.1407C14.4951 9.07452 13.6012 8.21021 12.4984 8.21021C11.3957 8.21021 10.5017 9.07452 10.5017 10.1407C10.5017 11.2069 11.3957 12.0712 12.4984 12.0712Z" fill="white"/>
<path d="M4.36302 12.5403H7.06599C7.91418 12.5403 8.60065 13.204 8.60065 14.0241V17.3618C8.60065 17.7128 8.30362 18 7.94058 18H3.48844C3.1254 18 2.82837 17.7128 2.82837 17.3618V14.0241C2.82837 13.204 3.51484 12.5403 4.36302 12.5403Z" fill="#F869EA"/>
<path d="M5.71289 12.0712C6.81563 12.0712 7.70959 11.2069 7.70959 10.1407C7.70959 9.07452 6.81563 8.21021 5.71289 8.21021C4.61014 8.21021 3.71619 9.07452 3.71619 10.1407C3.71619 11.2069 4.61014 12.0712 5.71289 12.0712Z" fill="white"/>
<path d="M17.9604 12.5403H20.6634C21.5116 12.5403 22.1981 13.204 22.1981 14.0241V17.3618C22.1981 17.7128 21.901 18 21.538 18H17.0858C16.7228 18 16.4258 17.7128 16.4258 17.3618V14.0241C16.4258 13.204 17.1122 12.5403 17.9604 12.5403Z" fill="#F869EA"/>
<path d="M19.3136 12.0712C20.4163 12.0712 21.3103 11.2069 21.3103 10.1407C21.3103 9.07452 20.4163 8.21021 19.3136 8.21021C18.2108 8.21021 17.3169 9.07452 17.3169 10.1407C17.3169 11.2069 18.2108 12.0712 19.3136 12.0712Z" fill="white"/>
</g>
<defs>
<clipPath id="clip0_101_1953">
<rect width="25" height="18" fill="white"/>
</clipPath>
</defs>
</svg>
