<svg viewBox="0 0 24 18" fill="none" xmlns="http://www.w3.org/2000/svg">
<g clip-path="url(#clip0_101_1965)">
<path d="M22.2852 0H5.14465C4.69059 0 4.25275 0.18974 3.93248 0.527056C3.61221 0.864371 3.42978 1.32396 3.42978 1.80042V15.3015C3.42978 15.5418 3.34059 15.7695 3.17843 15.9382C3.01627 16.1068 2.8014 16.2038 2.57032 16.2038C2.33924 16.2038 2.12438 16.111 1.96221 15.9382C1.80005 15.7695 1.71086 15.5418 1.71086 15.3015V4.49895C1.71086 4.25861 1.62167 4.03092 1.45951 3.86226C1.29735 3.69361 1.08248 3.59663 0.851403 3.59663C0.620322 3.59663 0.405457 3.68939 0.243295 3.86226C0.0811325 4.03092 -0.00805664 4.25861 -0.00805664 4.49895V15.3141C-0.00805664 16.0267 0.267619 16.7098 0.750051 17.2157C1.23248 17.7175 1.88519 18.0042 2.56221 18.0042H21.4176C22.0987 18.0042 22.7555 17.7217 23.2338 17.2115C23.7163 16.7056 23.9879 16.0183 23.9879 15.3015V1.80042C23.9879 1.32396 23.8055 0.864371 23.4852 0.527056C23.1649 0.18974 22.7271 0 22.273 0L22.2852 0Z" fill="#120D42"/>
<path d="M18 11.7006H9.42977C9.20275 11.7006 8.98383 11.6079 8.82166 11.435C8.6595 11.2663 8.57031 11.0387 8.57031 10.7983C8.57031 10.558 8.6595 10.3303 8.82166 10.1616C8.98383 9.99297 9.19869 9.896 9.42977 9.896H18C18.2271 9.896 18.446 9.98876 18.6082 10.1616C18.7703 10.3303 18.8595 10.558 18.8595 10.7983C18.8595 11.0387 18.7703 11.2663 18.6082 11.435C18.446 11.6037 18.2311 11.7006 18 11.7006Z" fill="white"/>
<path d="M18 8.0998H9.42977C9.20275 8.0998 8.98383 8.00704 8.82166 7.83417C8.6595 7.66551 8.57031 7.43782 8.57031 7.19748C8.57031 6.95715 8.6595 6.72946 8.82166 6.5608C8.98383 6.39214 9.19869 6.29517 9.42977 6.29517H18C18.2271 6.29517 18.446 6.38793 18.6082 6.5608C18.7703 6.72946 18.8595 6.95715 18.8595 7.19748C18.8595 7.43782 18.7703 7.66551 18.6082 7.83417C18.446 8.00283 18.2311 8.0998 18 8.0998Z" fill="#F869EA"/>
</g>
<defs>
<clipPath id="clip0_101_1965">
<rect width="24" height="18" fill="white"/>
</clipPath>
</defs>
</svg>
